<svg width="1265" height="550" viewBox="0 0 1265 550" fill="none" xmlns="http://www.w3.org/2000/svg">
<mask id="path-1-inside-1_4361_51" fill="white">
<path d="M1260.72 89.3545H1265V549.422H0V89.3545H4.27832L497.882 0H767.118L1260.72 89.3545ZM26.585 112.986V526.529H222.279V112.986H26.585ZM236.311 112.986V526.529H432.005V112.986H236.311ZM829.303 112.986V526.529H1025V112.986H829.303ZM1039.03 112.986V526.529H1234.72V112.986H1039.03Z"/>
</mask>
<path d="M1260.72 89.3545H1265V549.422H0V89.3545H4.27832L497.882 0H767.118L1260.72 89.3545ZM26.585 112.986V526.529H222.279V112.986H26.585ZM236.311 112.986V526.529H432.005V112.986H236.311ZM829.303 112.986V526.529H1025V112.986H829.303ZM1039.03 112.986V526.529H1234.72V112.986H1039.03Z" fill="#D9D9D9"/>
<path d="M1260.72 89.3545L1260.47 90.7321L1260.6 90.7545H1260.72V89.3545ZM1265 89.3545H1266.4V87.9545H1265V89.3545ZM1265 549.422V550.822H1266.4V549.422H1265ZM0 549.422H-1.4V550.822H0V549.422ZM0 89.3545V87.9545H-1.4V89.3545H0ZM4.27832 89.3545V90.7545H4.40402L4.5277 90.7321L4.27832 89.3545ZM497.882 0V-1.4H497.756L497.632 -1.37761L497.882 0ZM767.118 0L767.368 -1.37761L767.244 -1.4H767.118V0ZM26.585 112.986V111.586H25.185V112.986H26.585ZM26.585 526.529H25.185V527.929H26.585V526.529ZM222.279 526.529V527.929H223.679V526.529H222.279ZM222.279 112.986H223.679V111.586H222.279V112.986ZM236.311 112.986V111.586H234.911V112.986H236.311ZM236.311 526.529H234.911V527.929H236.311V526.529ZM432.005 526.529V527.929H433.405V526.529H432.005ZM432.005 112.986H433.405V111.586H432.005V112.986ZM829.303 112.986V111.586H827.903V112.986H829.303ZM829.303 526.529H827.903V527.929H829.303V526.529ZM1025 526.529V527.929H1026.4V526.529H1025ZM1025 112.986H1026.4V111.586H1025V112.986ZM1039.03 112.986V111.586H1037.63V112.986H1039.03ZM1039.03 526.529H1037.63V527.929H1039.03V526.529ZM1234.72 526.529V527.929H1236.12V526.529H1234.72ZM1234.72 112.986H1236.12V111.586H1234.72V112.986ZM1260.72 89.3545V90.7545H1265V89.3545V87.9545H1260.72V89.3545ZM1265 89.3545H1263.6V549.422H1265H1266.4V89.3545H1265ZM1265 549.422V548.022H0V549.422V550.822H1265V549.422ZM0 549.422H1.4V89.3545H0H-1.4V549.422H0ZM0 89.3545V90.7545H4.27832V89.3545V87.9545H0V89.3545ZM4.27832 89.3545L4.5277 90.7321L498.131 1.37761L497.882 0L497.632 -1.37761L4.02894 87.9769L4.27832 89.3545ZM497.882 0V1.4H767.118V0V-1.4H497.882V0ZM767.118 0L766.869 1.37761L1260.47 90.7321L1260.72 89.3545L1260.97 87.9769L767.368 -1.37761L767.118 0ZM26.585 112.986H25.185V526.529H26.585H27.985V112.986H26.585ZM26.585 526.529V527.929H222.279V526.529V525.129H26.585V526.529ZM222.279 526.529H223.679V112.986H222.279H220.879V526.529H222.279ZM222.279 112.986V111.586H26.585V112.986V114.386H222.279V112.986ZM236.311 112.986H234.911V526.529H236.311H237.711V112.986H236.311ZM236.311 526.529V527.929H432.005V526.529V525.129H236.311V526.529ZM432.005 526.529H433.405V112.986H432.005H430.605V526.529H432.005ZM432.005 112.986V111.586H236.311V112.986V114.386H432.005V112.986ZM829.303 112.986H827.903V526.529H829.303H830.703V112.986H829.303ZM829.303 526.529V527.929H1025V526.529V525.129H829.303V526.529ZM1025 526.529H1026.4V112.986H1025H1023.6V526.529H1025ZM1025 112.986V111.586H829.303V112.986V114.386H1025V112.986ZM1039.03 112.986H1037.63V526.529H1039.03H1040.43V112.986H1039.03ZM1039.03 526.529V527.929H1234.72V526.529V525.129H1039.03V526.529ZM1234.72 526.529H1236.12V112.986H1234.72H1233.32V526.529H1234.72ZM1234.72 112.986V111.586H1039.03V112.986V114.386H1234.72V112.986Z" fill="#BCB5AF" mask="url(#path-1-inside-1_4361_51)"/>
</svg>
