<svg width="168" height="22" viewBox="0 0 168 22" fill="none" xmlns="http://www.w3.org/2000/svg">
<path d="M5.82001 2.52003C5.82001 2.90403 5.75601 3.25203 5.62801 3.56403C5.50001 3.87603 5.32001 4.14003 5.08801 4.35603C4.85601 4.57203 4.57601 4.74003 4.24801 4.86003C3.92801 4.98003 3.57201 5.04003 3.18001 5.04003H0.912008V8.55603H7.6592e-06V0.0120301H3.18001C3.57201 0.0120301 3.92801 0.0720301 4.24801 0.19203C4.57601 0.30403 4.85601 0.47203 5.08801 0.69603C5.32001 0.91203 5.50001 1.17603 5.62801 1.48803C5.75601 1.79203 5.82001 2.13603 5.82001 2.52003ZM4.90801 2.52003C4.90801 1.95203 4.74001 1.52803 4.40401 1.24803C4.06801 0.96803 3.63201 0.82803 3.09601 0.82803H0.912008V4.22403H3.09601C3.63201 4.22403 4.06801 4.08403 4.40401 3.80403C4.74001 3.51603 4.90801 3.08803 4.90801 2.52003ZM10.7026 3.78003C10.5426 3.62003 10.3906 3.50803 10.2466 3.44403C10.1026 3.38003 9.9146 3.34803 9.6826 3.34803C9.4666 3.34803 9.2706 3.38803 9.0946 3.46803C8.9186 3.54803 8.7706 3.66003 8.6506 3.80403C8.5306 3.94803 8.4346 4.11603 8.3626 4.30803C8.2986 4.50003 8.2666 4.70803 8.2666 4.93203V8.55603H7.4026V2.65203H8.2666V3.37203C8.4266 3.12403 8.6546 2.93203 8.9506 2.79603C9.2546 2.65203 9.5786 2.58003 9.9226 2.58003C10.2026 2.58003 10.4546 2.62003 10.6786 2.70003C10.9106 2.78003 11.1306 2.92403 11.3386 3.13203L10.7026 3.78003ZM12.5832 5.83203C12.5832 6.48003 12.7312 6.98403 13.0272 7.34403C13.3232 7.69603 13.7552 7.87203 14.3232 7.87203C14.6672 7.87203 14.9512 7.82003 15.1752 7.71603C15.4072 7.60403 15.6392 7.43203 15.8712 7.20003L16.4592 7.71603C16.3072 7.86803 16.1552 8.00003 16.0032 8.11203C15.8592 8.22403 15.7032 8.32003 15.5352 8.40003C15.3672 8.47203 15.1792 8.52803 14.9712 8.56803C14.7712 8.60803 14.5472 8.62803 14.2992 8.62803C13.9072 8.62803 13.5512 8.56803 13.2312 8.44803C12.9192 8.32803 12.6512 8.14403 12.4272 7.89603C12.2032 7.64803 12.0272 7.33603 11.8992 6.96003C11.7792 6.57603 11.7192 6.12403 11.7192 5.60403C11.7192 4.64403 11.9352 3.90003 12.3672 3.37203C12.7992 2.84403 13.3912 2.58003 14.1432 2.58003C14.9112 2.58003 15.5072 2.83603 15.9312 3.34803C16.3552 3.86003 16.5672 4.55603 16.5672 5.43603V5.83203H12.5832ZM15.7032 5.18403C15.6952 5.06403 15.6872 4.96003 15.6792 4.87203C15.6712 4.78403 15.6592 4.70403 15.6432 4.63203C15.6352 4.56003 15.6192 4.49203 15.5952 4.42803C15.5792 4.35603 15.5552 4.28003 15.5232 4.20003C15.4112 3.92803 15.2312 3.71203 14.9832 3.55203C14.7352 3.39203 14.4552 3.31203 14.1432 3.31203C13.8312 3.31203 13.5512 3.39203 13.3032 3.55203C13.0552 3.71203 12.8752 3.92803 12.7632 4.20003C12.6992 4.36003 12.6552 4.50403 12.6312 4.63203C12.6072 4.76003 12.5912 4.94403 12.5832 5.18403H15.7032ZM22.6425 7.75203C22.3385 8.08003 22.0385 8.30803 21.7425 8.43603C21.4545 8.56403 21.1065 8.62803 20.6985 8.62803C20.3225 8.62803 19.9745 8.56803 19.6545 8.44803C19.3425 8.32003 19.0665 8.13203 18.8265 7.88403C18.5945 7.62803 18.4105 7.31203 18.2745 6.93603C18.1465 6.55203 18.0825 6.10803 18.0825 5.60403C18.0825 5.10003 18.1465 4.66003 18.2745 4.28403C18.4105 3.90803 18.5945 3.59603 18.8265 3.34803C19.0665 3.09203 19.3425 2.90003 19.6545 2.77203C19.9745 2.64403 20.3225 2.58003 20.6985 2.58003C21.1065 2.58003 21.4545 2.64403 21.7425 2.77203C22.0385 2.90003 22.3385 3.12803 22.6425 3.45603L22.0545 4.00803C21.8305 3.76003 21.6185 3.58803 21.4185 3.49203C21.2185 3.39603 20.9785 3.34803 20.6985 3.34803C20.4105 3.34803 20.1505 3.40403 19.9185 3.51603C19.6865 3.62803 19.4905 3.79603 19.3305 4.02003C19.1945 4.21203 19.0945 4.43203 19.0305 4.68003C18.9745 4.92003 18.9465 5.22803 18.9465 5.60403C18.9465 5.98003 18.9745 6.29203 19.0305 6.54003C19.0945 6.78003 19.1945 6.99603 19.3305 7.18803C19.4905 7.41203 19.6865 7.58003 19.9185 7.69203C20.1505 7.80403 20.4105 7.86003 20.6985 7.86003C20.9785 7.86003 21.2185 7.81203 21.4185 7.71603C21.6185 7.61203 21.8305 7.43603 22.0545 7.18803L22.6425 7.75203ZM24.2893 8.55603V2.65203H25.1533V8.55603H24.2893ZM24.2413 0.97203V2.95639e-05H25.2133V0.97203H24.2413ZM31.5845 6.82803C31.5845 7.11603 31.5245 7.37203 31.4045 7.59603C31.2925 7.81203 31.1285 8.00003 30.9125 8.16003C30.7045 8.31203 30.4525 8.42803 30.1565 8.50803C29.8685 8.58803 29.5445 8.62803 29.1845 8.62803C28.6805 8.62803 28.2325 8.56403 27.8405 8.43603C27.4485 8.30803 27.0885 8.08803 26.7605 7.77603L27.3365 7.20003C27.5685 7.44803 27.8405 7.62403 28.1525 7.72803C28.4645 7.83203 28.8045 7.88403 29.1725 7.88403C29.6605 7.88403 30.0445 7.80003 30.3245 7.63203C30.6045 7.45603 30.7445 7.19203 30.7445 6.84003C30.7445 6.58403 30.6645 6.38403 30.5045 6.24003C30.3525 6.09603 30.1045 6.00803 29.7605 5.97603L28.7885 5.89203C28.2125 5.84403 27.7725 5.69203 27.4685 5.43603C27.1725 5.17203 27.0245 4.79603 27.0245 4.30803C27.0245 4.03603 27.0765 3.79603 27.1805 3.58803C27.2925 3.37203 27.4445 3.19203 27.6365 3.04803C27.8285 2.89603 28.0565 2.78003 28.3205 2.70003C28.5925 2.62003 28.8845 2.58003 29.1965 2.58003C29.6205 2.58003 30.0125 2.63203 30.3725 2.73603C30.7405 2.84003 31.0565 3.00003 31.3205 3.21603L30.7565 3.78003C30.5485 3.62003 30.3085 3.50403 30.0365 3.43203C29.7725 3.35203 29.4885 3.31203 29.1845 3.31203C28.7525 3.31203 28.4245 3.40003 28.2005 3.57603C27.9765 3.74403 27.8645 3.98003 27.8645 4.28403C27.8645 4.54003 27.9405 4.74003 28.0925 4.88403C28.2525 5.02803 28.5205 5.11603 28.8965 5.14803L29.8445 5.23203C30.1005 5.25603 30.3365 5.30003 30.5525 5.36403C30.7685 5.42803 30.9525 5.52403 31.1045 5.65203C31.2565 5.78003 31.3725 5.94003 31.4525 6.13203C31.5405 6.32403 31.5845 6.55603 31.5845 6.82803ZM33.2776 8.55603V2.65203H34.1416V8.55603H33.2776ZM33.2296 0.97203V2.95639e-05H34.2016V0.97203H33.2296ZM40.8248 5.60403C40.8248 6.06003 40.7768 6.49203 40.6808 6.90003C40.5928 7.30003 40.4008 7.65203 40.1048 7.95603C39.8968 8.16403 39.6528 8.32803 39.3728 8.44803C39.0928 8.56803 38.7728 8.62803 38.4128 8.62803C38.0528 8.62803 37.7328 8.56803 37.4528 8.44803C37.1728 8.32803 36.9288 8.16403 36.7208 7.95603C36.5688 7.80403 36.4448 7.64003 36.3488 7.46403C36.2608 7.28003 36.1888 7.09203 36.1328 6.90003C36.0848 6.70003 36.0488 6.49203 36.0248 6.27603C36.0088 6.06003 36.0008 5.83603 36.0008 5.60403C36.0008 5.38003 36.0088 5.16003 36.0248 4.94403C36.0488 4.72003 36.0848 4.51203 36.1328 4.32003C36.1888 4.12003 36.2608 3.93203 36.3488 3.75603C36.4448 3.57203 36.5688 3.40403 36.7208 3.25203C36.9288 3.04403 37.1728 2.88003 37.4528 2.76003C37.7328 2.64003 38.0528 2.58003 38.4128 2.58003C38.7728 2.58003 39.0928 2.64003 39.3728 2.76003C39.6528 2.88003 39.8968 3.04403 40.1048 3.25203C40.4008 3.55603 40.5928 3.91203 40.6808 4.32003C40.7768 4.72003 40.8248 5.14803 40.8248 5.60403ZM39.9608 5.60403C39.9608 5.43603 39.9568 5.26803 39.9488 5.10003C39.9408 4.93203 39.9208 4.76803 39.8888 4.60803C39.8568 4.44803 39.8088 4.30003 39.7448 4.16403C39.6808 4.02003 39.5968 3.89203 39.4928 3.78003C39.2048 3.49203 38.8448 3.34803 38.4128 3.34803C37.9888 3.34803 37.6328 3.49203 37.3448 3.78003C37.2328 3.89203 37.1448 4.02003 37.0808 4.16403C37.0248 4.30003 36.9768 4.44803 36.9368 4.60803C36.9048 4.76803 36.8848 4.93203 36.8768 5.10003C36.8688 5.26803 36.8648 5.43603 36.8648 5.60403C36.8648 5.77203 36.8688 5.94003 36.8768 6.10803C36.8848 6.27603 36.9048 6.44003 36.9368 6.60003C36.9768 6.76003 37.0248 6.91203 37.0808 7.05603C37.1448 7.20003 37.2328 7.32403 37.3448 7.42803C37.6328 7.71603 37.9888 7.86003 38.4128 7.86003C38.8448 7.86003 39.2048 7.71603 39.4928 7.42803C39.5968 7.32403 39.6808 7.20003 39.7448 7.05603C39.8088 6.91203 39.8568 6.76003 39.8888 6.60003C39.9208 6.44003 39.9408 6.27603 39.9488 6.10803C39.9568 5.94003 39.9608 5.77203 39.9608 5.60403ZM46.456 8.55603V4.92003C46.456 4.39203 46.324 4.00003 46.06 3.74403C45.804 3.48003 45.452 3.34803 45.004 3.34803C44.556 3.34803 44.2 3.48003 43.936 3.74403C43.672 4.00803 43.54 4.40003 43.54 4.92003V8.55603H42.676V2.65203H43.54V3.30003C43.748 3.06003 43.992 2.88003 44.272 2.76003C44.552 2.64003 44.86 2.58003 45.196 2.58003C45.836 2.58003 46.34 2.76403 46.708 3.13203C47.116 3.53203 47.32 4.08003 47.32 4.77603V8.55603H46.456ZM49.2463 5.72403V4.92003H52.5343V5.72403H49.2463ZM59.2157 5.60403C59.2157 5.83603 59.2037 6.06803 59.1797 6.30003C59.1637 6.53203 59.1277 6.76003 59.0717 6.98403C59.0237 7.20003 58.9517 7.40403 58.8557 7.59603C58.7677 7.78803 58.6477 7.96003 58.4957 8.11203C58.3357 8.27203 58.1317 8.40003 57.8837 8.49603C57.6357 8.58403 57.3597 8.62803 57.0557 8.62803C56.7277 8.62803 56.4277 8.57603 56.1557 8.47203C55.8837 8.36803 55.6277 8.16003 55.3877 7.84803V8.55603H54.5237V0.0120301H55.3877V3.33603C55.6277 3.03203 55.8837 2.83203 56.1557 2.73603C56.4277 2.63203 56.7277 2.58003 57.0557 2.58003C57.3597 2.58003 57.6357 2.62803 57.8837 2.72403C58.1317 2.81203 58.3357 2.93603 58.4957 3.09603C58.6477 3.24803 58.7677 3.42003 58.8557 3.61203C58.9517 3.80403 59.0237 4.01203 59.0717 4.23603C59.1277 4.45203 59.1637 4.67603 59.1797 4.90803C59.2037 5.14003 59.2157 5.37203 59.2157 5.60403ZM58.3517 5.60403C58.3517 5.31603 58.3357 5.03603 58.3037 4.76403C58.2717 4.49203 58.2037 4.25203 58.0997 4.04403C57.9957 3.83603 57.8437 3.66803 57.6437 3.54003C57.4517 3.41203 57.1957 3.34803 56.8757 3.34803C56.5557 3.34803 56.2957 3.41203 56.0957 3.54003C55.9037 3.66803 55.7557 3.83603 55.6517 4.04403C55.5477 4.25203 55.4757 4.49203 55.4357 4.76403C55.4037 5.03603 55.3877 5.31603 55.3877 5.60403C55.3877 5.89203 55.4037 6.17203 55.4357 6.44403C55.4757 6.71603 55.5477 6.95603 55.6517 7.16403C55.7557 7.37203 55.9037 7.54003 56.0957 7.66803C56.2957 7.79603 56.5557 7.86003 56.8757 7.86003C57.1957 7.86003 57.4517 7.79603 57.6437 7.66803C57.8437 7.54003 57.9957 7.37203 58.0997 7.16403C58.2037 6.95603 58.2717 6.71603 58.3037 6.44403C58.3357 6.17203 58.3517 5.89203 58.3517 5.60403ZM64.7948 8.55603V7.89603C64.5868 8.13603 64.3388 8.32003 64.0508 8.44803C63.7708 8.56803 63.4628 8.62803 63.1268 8.62803C62.4788 8.62803 61.9708 8.44403 61.6028 8.07603C61.3948 7.86803 61.2428 7.62803 61.1468 7.35603C61.0508 7.07603 61.0028 6.76403 61.0028 6.42003V2.65203H61.8668V6.28803C61.8668 6.81603 61.9948 7.21203 62.2508 7.47603C62.5068 7.73203 62.8588 7.86003 63.3068 7.86003C63.7548 7.86003 64.1108 7.72803 64.3748 7.46403C64.6468 7.20003 64.7828 6.80803 64.7828 6.28803V2.65203H65.6468V8.55603H64.7948ZM67.801 8.55603V2.65203H68.665V8.55603H67.801ZM67.753 0.97203V2.95639e-05H68.725V0.97203H67.753ZM72.3122 8.55603C71.7922 8.55603 71.4122 8.40803 71.1722 8.11203C70.9322 7.80803 70.8122 7.43203 70.8122 6.98403V0.0120301H71.6762V6.94803C71.6762 7.23603 71.7322 7.45203 71.8442 7.59603C71.9562 7.74003 72.1642 7.81203 72.4682 7.81203H72.9362V8.55603H72.3122ZM76.0547 8.55603C75.7987 8.55603 75.5747 8.51603 75.3827 8.43603C75.1987 8.34803 75.0427 8.23203 74.9147 8.08803C74.7947 7.94403 74.7027 7.77603 74.6387 7.58403C74.5747 7.39203 74.5427 7.18803 74.5427 6.97203V3.34803H73.7987V2.68803H74.5427V0.84003H75.4067V2.68803H76.6667V3.34803H75.4067V6.94803C75.4067 7.22003 75.4707 7.43203 75.5987 7.58403C75.7267 7.73603 75.9307 7.81203 76.2107 7.81203H76.6667V8.55603H76.0547ZM84.8994 8.55603V7.84803C84.6594 8.16003 84.3994 8.36803 84.1194 8.47203C83.8474 8.57603 83.5474 8.62803 83.2194 8.62803C82.9154 8.62803 82.6394 8.58403 82.3914 8.49603C82.1434 8.40003 81.9394 8.27203 81.7794 8.11203C81.6274 7.96003 81.5034 7.78803 81.4074 7.59603C81.3194 7.40403 81.2474 7.20003 81.1914 6.98403C81.1434 6.76003 81.1074 6.53203 81.0834 6.30003C81.0674 6.06803 81.0594 5.83603 81.0594 5.60403C81.0594 5.37203 81.0674 5.14003 81.0834 4.90803C81.1074 4.67603 81.1434 4.45203 81.1914 4.23603C81.2474 4.01203 81.3194 3.80403 81.4074 3.61203C81.5034 3.42003 81.6274 3.24803 81.7794 3.09603C81.9394 2.93603 82.1434 2.81203 82.3914 2.72403C82.6394 2.62803 82.9154 2.58003 83.2194 2.58003C83.5474 2.58003 83.8474 2.63203 84.1194 2.73603C84.3914 2.83203 84.6474 3.03203 84.8874 3.33603V0.0120301H85.7514V8.55603H84.8994ZM84.8874 5.60403C84.8874 5.31603 84.8714 5.03603 84.8394 4.76403C84.8074 4.49203 84.7394 4.25203 84.6354 4.04403C84.5314 3.83603 84.3794 3.66803 84.1794 3.54003C83.9874 3.41203 83.7314 3.34803 83.4114 3.34803C83.0914 3.34803 82.8314 3.41203 82.6314 3.54003C82.4394 3.66803 82.2914 3.83603 82.1874 4.04403C82.0834 4.25203 82.0114 4.49203 81.9714 4.76403C81.9394 5.03603 81.9234 5.31603 81.9234 5.60403C81.9234 5.89203 81.9394 6.17203 81.9714 6.44403C82.0114 6.71603 82.0834 6.95603 82.1874 7.16403C82.2914 7.37203 82.4394 7.54003 82.6314 7.66803C82.8314 7.79603 83.0914 7.86003 83.4114 7.86003C83.7314 7.86003 83.9874 7.79603 84.1794 7.66803C84.3794 7.54003 84.5314 7.37203 84.6354 7.16403C84.7394 6.95603 84.8074 6.71603 84.8394 6.44403C84.8714 6.17203 84.8874 5.89203 84.8874 5.60403ZM88.4504 5.83203C88.4504 6.48003 88.5984 6.98403 88.8944 7.34403C89.1904 7.69603 89.6224 7.87203 90.1904 7.87203C90.5344 7.87203 90.8184 7.82003 91.0424 7.71603C91.2744 7.60403 91.5064 7.43203 91.7384 7.20003L92.3264 7.71603C92.1744 7.86803 92.0224 8.00003 91.8704 8.11203C91.7264 8.22403 91.5704 8.32003 91.4024 8.40003C91.2344 8.47203 91.0464 8.52803 90.8384 8.56803C90.6384 8.60803 90.4144 8.62803 90.1664 8.62803C89.7744 8.62803 89.4184 8.56803 89.0984 8.44803C88.7864 8.32803 88.5184 8.14403 88.2944 7.89603C88.0704 7.64803 87.8944 7.33603 87.7664 6.96003C87.6464 6.57603 87.5864 6.12403 87.5864 5.60403C87.5864 4.64403 87.8024 3.90003 88.2344 3.37203C88.6664 2.84403 89.2584 2.58003 90.0104 2.58003C90.7784 2.58003 91.3744 2.83603 91.7984 3.34803C92.2224 3.86003 92.4344 4.55603 92.4344 5.43603V5.83203H88.4504ZM91.5704 5.18403C91.5624 5.06403 91.5544 4.96003 91.5464 4.87203C91.5384 4.78403 91.5264 4.70403 91.5104 4.63203C91.5024 4.56003 91.4864 4.49203 91.4624 4.42803C91.4464 4.35603 91.4224 4.28003 91.3904 4.20003C91.2784 3.92803 91.0984 3.71203 90.8504 3.55203C90.6024 3.39203 90.3224 3.31203 90.0104 3.31203C89.6984 3.31203 89.4184 3.39203 89.1704 3.55203C88.9224 3.71203 88.7424 3.92803 88.6304 4.20003C88.5664 4.36003 88.5224 4.50403 88.4984 4.63203C88.4744 4.76003 88.4584 4.94403 88.4504 5.18403H91.5704ZM98.5337 6.82803C98.5337 7.11603 98.4737 7.37203 98.3537 7.59603C98.2417 7.81203 98.0777 8.00003 97.8617 8.16003C97.6537 8.31203 97.4017 8.42803 97.1057 8.50803C96.8177 8.58803 96.4937 8.62803 96.1337 8.62803C95.6297 8.62803 95.1817 8.56403 94.7897 8.43603C94.3977 8.30803 94.0377 8.08803 93.7097 7.77603L94.2857 7.20003C94.5177 7.44803 94.7897 7.62403 95.1017 7.72803C95.4137 7.83203 95.7537 7.88403 96.1217 7.88403C96.6097 7.88403 96.9937 7.80003 97.2737 7.63203C97.5537 7.45603 97.6937 7.19203 97.6937 6.84003C97.6937 6.58403 97.6137 6.38403 97.4537 6.24003C97.3017 6.09603 97.0537 6.00803 96.7097 5.97603L95.7377 5.89203C95.1617 5.84403 94.7217 5.69203 94.4177 5.43603C94.1217 5.17203 93.9737 4.79603 93.9737 4.30803C93.9737 4.03603 94.0257 3.79603 94.1297 3.58803C94.2417 3.37203 94.3937 3.19203 94.5857 3.04803C94.7777 2.89603 95.0057 2.78003 95.2697 2.70003C95.5417 2.62003 95.8337 2.58003 96.1457 2.58003C96.5697 2.58003 96.9617 2.63203 97.3217 2.73603C97.6897 2.84003 98.0057 3.00003 98.2697 3.21603L97.7057 3.78003C97.4977 3.62003 97.2577 3.50403 96.9857 3.43203C96.7217 3.35203 96.4377 3.31203 96.1337 3.31203C95.7017 3.31203 95.3737 3.40003 95.1497 3.57603C94.9257 3.74403 94.8137 3.98003 94.8137 4.28403C94.8137 4.54003 94.8897 4.74003 95.0417 4.88403C95.2017 5.02803 95.4697 5.11603 95.8457 5.14803L96.7937 5.23203C97.0497 5.25603 97.2857 5.30003 97.5017 5.36403C97.7177 5.42803 97.9017 5.52403 98.0537 5.65203C98.2057 5.78003 98.3217 5.94003 98.4017 6.13203C98.4897 6.32403 98.5337 6.55603 98.5337 6.82803ZM100.227 8.55603V2.65203H101.091V8.55603H100.227ZM100.179 0.97203V2.95639e-05H101.151V0.97203H100.179ZM107.618 8.73603C107.618 9.10403 107.562 9.44003 107.45 9.74403C107.338 10.056 107.178 10.324 106.97 10.548C106.762 10.772 106.502 10.948 106.19 11.076C105.886 11.204 105.542 11.268 105.158 11.268C104.934 11.268 104.734 11.252 104.558 11.22C104.382 11.196 104.214 11.152 104.054 11.088C103.902 11.024 103.75 10.94 103.598 10.836C103.454 10.74 103.306 10.62 103.154 10.476L103.718 9.92403C103.822 10.02 103.922 10.104 104.018 10.176C104.122 10.248 104.226 10.308 104.33 10.356C104.442 10.412 104.562 10.452 104.69 10.476C104.818 10.5 104.966 10.512 105.134 10.512C105.422 10.512 105.666 10.464 105.866 10.368C106.074 10.272 106.242 10.144 106.37 9.98403C106.506 9.82403 106.602 9.63203 106.658 9.40803C106.722 9.19203 106.754 8.95603 106.754 8.70003V7.77603C106.514 8.08003 106.258 8.28403 105.986 8.38803C105.714 8.49203 105.418 8.54403 105.098 8.54403C104.794 8.54403 104.518 8.49603 104.27 8.40003C104.03 8.30403 103.83 8.17603 103.67 8.01603C103.374 7.72003 103.178 7.35603 103.082 6.92403C102.994 6.49203 102.95 6.03603 102.95 5.55603C102.95 5.07603 102.994 4.62003 103.082 4.18803C103.178 3.75603 103.374 3.39203 103.67 3.09603C103.83 2.93603 104.034 2.81203 104.282 2.72403C104.53 2.62803 104.806 2.58003 105.11 2.58003C105.438 2.58003 105.734 2.63203 105.998 2.73603C106.27 2.83203 106.526 3.03603 106.766 3.34803V2.65203H107.618V8.73603ZM106.754 5.55603C106.754 5.28403 106.738 5.01603 106.706 4.75203C106.674 4.48003 106.606 4.24403 106.502 4.04403C106.398 3.83603 106.25 3.66803 106.058 3.54003C105.866 3.41203 105.61 3.34803 105.29 3.34803C104.97 3.34803 104.71 3.41203 104.51 3.54003C104.318 3.66803 104.17 3.83603 104.066 4.04403C103.962 4.24403 103.894 4.48003 103.862 4.75203C103.83 5.01603 103.814 5.28403 103.814 5.55603C103.814 5.83603 103.83 6.10803 103.862 6.37203C103.894 6.63603 103.962 6.87203 104.066 7.08003C104.17 7.28003 104.318 7.44403 104.51 7.57203C104.71 7.70003 104.97 7.76403 105.29 7.76403C105.61 7.76403 105.866 7.70003 106.058 7.57203C106.25 7.44403 106.398 7.28003 106.502 7.08003C106.606 6.87203 106.674 6.63603 106.706 6.37203C106.738 6.10803 106.754 5.83603 106.754 5.55603ZM113.558 8.55603V4.92003C113.558 4.39203 113.426 4.00003 113.162 3.74403C112.906 3.48003 112.554 3.34803 112.106 3.34803C111.658 3.34803 111.302 3.48003 111.038 3.74403C110.774 4.00803 110.642 4.40003 110.642 4.92003V8.55603H109.778V2.65203H110.642V3.30003C110.85 3.06003 111.094 2.88003 111.374 2.76003C111.654 2.64003 111.962 2.58003 112.298 2.58003C112.938 2.58003 113.442 2.76403 113.81 3.13203C114.218 3.53203 114.422 4.08003 114.422 4.77603V8.55603H113.558ZM117.056 5.83203C117.056 6.48003 117.204 6.98403 117.5 7.34403C117.796 7.69603 118.228 7.87203 118.796 7.87203C119.14 7.87203 119.424 7.82003 119.648 7.71603C119.88 7.60403 120.112 7.43203 120.344 7.20003L120.932 7.71603C120.78 7.86803 120.628 8.00003 120.476 8.11203C120.332 8.22403 120.176 8.32003 120.008 8.40003C119.84 8.47203 119.652 8.52803 119.444 8.56803C119.244 8.60803 119.02 8.62803 118.772 8.62803C118.38 8.62803 118.024 8.56803 117.704 8.44803C117.392 8.32803 117.124 8.14403 116.9 7.89603C116.676 7.64803 116.5 7.33603 116.372 6.96003C116.252 6.57603 116.192 6.12403 116.192 5.60403C116.192 4.64403 116.408 3.90003 116.84 3.37203C117.272 2.84403 117.864 2.58003 118.616 2.58003C119.384 2.58003 119.98 2.83603 120.404 3.34803C120.828 3.86003 121.04 4.55603 121.04 5.43603V5.83203H117.056ZM120.176 5.18403C120.168 5.06403 120.16 4.96003 120.152 4.87203C120.144 4.78403 120.132 4.70403 120.116 4.63203C120.108 4.56003 120.092 4.49203 120.068 4.42803C120.052 4.35603 120.028 4.28003 119.996 4.20003C119.884 3.92803 119.704 3.71203 119.456 3.55203C119.208 3.39203 118.928 3.31203 118.616 3.31203C118.304 3.31203 118.024 3.39203 117.776 3.55203C117.528 3.71203 117.348 3.92803 117.236 4.20003C117.172 4.36003 117.128 4.50403 117.104 4.63203C117.08 4.76003 117.064 4.94403 117.056 5.18403H120.176ZM126.179 3.78003C126.019 3.62003 125.867 3.50803 125.723 3.44403C125.579 3.38003 125.391 3.34803 125.159 3.34803C124.943 3.34803 124.747 3.38803 124.571 3.46803C124.395 3.54803 124.247 3.66003 124.127 3.80403C124.007 3.94803 123.911 4.11603 123.839 4.30803C123.775 4.50003 123.743 4.70803 123.743 4.93203V8.55603H122.879V2.65203H123.743V3.37203C123.903 3.12403 124.131 2.93203 124.427 2.79603C124.731 2.65203 125.055 2.58003 125.399 2.58003C125.679 2.58003 125.931 2.62003 126.155 2.70003C126.387 2.78003 126.607 2.92403 126.815 3.13203L126.179 3.78003ZM134.698 8.55603V4.90803C134.698 4.38803 134.57 4.00003 134.314 3.74403C134.058 3.48003 133.706 3.34803 133.258 3.34803C132.81 3.34803 132.45 3.48003 132.178 3.74403C131.914 4.00803 131.782 4.39603 131.782 4.90803V8.55603H130.918V0.0120301H131.782V3.30003C132.206 2.82003 132.758 2.58003 133.438 2.58003C134.11 2.58003 134.63 2.77603 134.998 3.16803C135.374 3.56003 135.562 4.09203 135.562 4.76403V8.55603H134.698ZM142.169 5.60403C142.169 6.06003 142.121 6.49203 142.025 6.90003C141.937 7.30003 141.745 7.65203 141.449 7.95603C141.241 8.16403 140.997 8.32803 140.717 8.44803C140.437 8.56803 140.117 8.62803 139.757 8.62803C139.397 8.62803 139.077 8.56803 138.797 8.44803C138.517 8.32803 138.273 8.16403 138.065 7.95603C137.913 7.80403 137.789 7.64003 137.693 7.46403C137.605 7.28003 137.533 7.09203 137.477 6.90003C137.429 6.70003 137.393 6.49203 137.369 6.27603C137.353 6.06003 137.345 5.83603 137.345 5.60403C137.345 5.38003 137.353 5.16003 137.369 4.94403C137.393 4.72003 137.429 4.51203 137.477 4.32003C137.533 4.12003 137.605 3.93203 137.693 3.75603C137.789 3.57203 137.913 3.40403 138.065 3.25203C138.273 3.04403 138.517 2.88003 138.797 2.76003C139.077 2.64003 139.397 2.58003 139.757 2.58003C140.117 2.58003 140.437 2.64003 140.717 2.76003C140.997 2.88003 141.241 3.04403 141.449 3.25203C141.745 3.55603 141.937 3.91203 142.025 4.32003C142.121 4.72003 142.169 5.14803 142.169 5.60403ZM141.305 5.60403C141.305 5.43603 141.301 5.26803 141.293 5.10003C141.285 4.93203 141.265 4.76803 141.233 4.60803C141.201 4.44803 141.153 4.30003 141.089 4.16403C141.025 4.02003 140.941 3.89203 140.837 3.78003C140.549 3.49203 140.189 3.34803 139.757 3.34803C139.333 3.34803 138.977 3.49203 138.689 3.78003C138.577 3.89203 138.489 4.02003 138.425 4.16403C138.369 4.30003 138.321 4.44803 138.281 4.60803C138.249 4.76803 138.229 4.93203 138.221 5.10003C138.213 5.26803 138.209 5.43603 138.209 5.60403C138.209 5.77203 138.213 5.94003 138.221 6.10803C138.229 6.27603 138.249 6.44003 138.281 6.60003C138.321 6.76003 138.369 6.91203 138.425 7.05603C138.489 7.20003 138.577 7.32403 138.689 7.42803C138.977 7.71603 139.333 7.86003 139.757 7.86003C140.189 7.86003 140.549 7.71603 140.837 7.42803C140.941 7.32403 141.025 7.20003 141.089 7.05603C141.153 6.91203 141.201 6.76003 141.233 6.60003C141.265 6.44003 141.285 6.27603 141.293 6.10803C141.301 5.94003 141.305 5.77203 141.305 5.60403ZM151.604 8.55603V4.92003C151.604 4.39203 151.472 4.00003 151.208 3.74403C150.952 3.48003 150.6 3.34803 150.152 3.34803C149.72 3.34803 149.364 3.47603 149.084 3.73203C148.812 3.98803 148.676 4.35203 148.676 4.82403V8.55603H147.812V4.92003C147.812 4.39203 147.68 4.00003 147.416 3.74403C147.16 3.48003 146.808 3.34803 146.36 3.34803C145.912 3.34803 145.552 3.48003 145.28 3.74403C145.016 4.00803 144.884 4.40003 144.884 4.92003V8.55603H144.02V2.65203H144.884V3.30003C145.092 3.06003 145.336 2.88003 145.616 2.76003C145.904 2.64003 146.216 2.58003 146.552 2.58003C146.96 2.58003 147.316 2.66403 147.62 2.83203C147.932 2.99203 148.18 3.23603 148.364 3.56403C148.828 2.90803 149.476 2.58003 150.308 2.58003C150.628 2.58003 150.916 2.62803 151.172 2.72403C151.428 2.82003 151.648 2.95603 151.832 3.13203C152.256 3.54003 152.468 4.08803 152.468 4.77603V8.55603H151.604ZM155.107 5.83203C155.107 6.48003 155.255 6.98403 155.551 7.34403C155.847 7.69603 156.279 7.87203 156.847 7.87203C157.191 7.87203 157.475 7.82003 157.699 7.71603C157.931 7.60403 158.163 7.43203 158.395 7.20003L158.983 7.71603C158.831 7.86803 158.679 8.00003 158.527 8.11203C158.383 8.22403 158.227 8.32003 158.059 8.40003C157.891 8.47203 157.703 8.52803 157.495 8.56803C157.295 8.60803 157.071 8.62803 156.823 8.62803C156.431 8.62803 156.075 8.56803 155.755 8.44803C155.443 8.32803 155.175 8.14403 154.951 7.89603C154.727 7.64803 154.551 7.33603 154.423 6.96003C154.303 6.57603 154.243 6.12403 154.243 5.60403C154.243 4.64403 154.459 3.90003 154.891 3.37203C155.323 2.84403 155.915 2.58003 156.667 2.58003C157.435 2.58003 158.031 2.83603 158.455 3.34803C158.879 3.86003 159.091 4.55603 159.091 5.43603V5.83203H155.107ZM158.227 5.18403C158.219 5.06403 158.211 4.96003 158.203 4.87203C158.195 4.78403 158.183 4.70403 158.167 4.63203C158.159 4.56003 158.143 4.49203 158.119 4.42803C158.103 4.35603 158.079 4.28003 158.047 4.20003C157.935 3.92803 157.755 3.71203 157.507 3.55203C157.259 3.39203 156.979 3.31203 156.667 3.31203C156.355 3.31203 156.075 3.39203 155.827 3.55203C155.579 3.71203 155.399 3.92803 155.287 4.20003C155.223 4.36003 155.179 4.50403 155.155 4.63203C155.131 4.76003 155.115 4.94403 155.107 5.18403H158.227ZM165.19 6.82803C165.19 7.11603 165.13 7.37203 165.01 7.59603C164.898 7.81203 164.734 8.00003 164.518 8.16003C164.31 8.31203 164.058 8.42803 163.762 8.50803C163.474 8.58803 163.15 8.62803 162.79 8.62803C162.286 8.62803 161.838 8.56403 161.446 8.43603C161.054 8.30803 160.694 8.08803 160.366 7.77603L160.942 7.20003C161.174 7.44803 161.446 7.62403 161.758 7.72803C162.07 7.83203 162.41 7.88403 162.778 7.88403C163.266 7.88403 163.65 7.80003 163.93 7.63203C164.21 7.45603 164.35 7.19203 164.35 6.84003C164.35 6.58403 164.27 6.38403 164.11 6.24003C163.958 6.09603 163.71 6.00803 163.366 5.97603L162.394 5.89203C161.818 5.84403 161.378 5.69203 161.074 5.43603C160.778 5.17203 160.63 4.79603 160.63 4.30803C160.63 4.03603 160.682 3.79603 160.786 3.58803C160.898 3.37203 161.05 3.19203 161.242 3.04803C161.434 2.89603 161.662 2.78003 161.926 2.70003C162.198 2.62003 162.49 2.58003 162.802 2.58003C163.226 2.58003 163.618 2.63203 163.978 2.73603C164.346 2.84003 164.662 3.00003 164.926 3.21603L164.362 3.78003C164.154 3.62003 163.914 3.50403 163.642 3.43203C163.378 3.35203 163.094 3.31203 162.79 3.31203C162.358 3.31203 162.03 3.40003 161.806 3.57603C161.582 3.74403 161.47 3.98003 161.47 4.28403C161.47 4.54003 161.546 4.74003 161.698 4.88403C161.858 5.02803 162.126 5.11603 162.502 5.14803L163.45 5.23203C163.706 5.25603 163.942 5.30003 164.158 5.36403C164.374 5.42803 164.558 5.52403 164.71 5.65203C164.862 5.78003 164.978 5.94003 165.058 6.13203C165.146 6.32403 165.19 6.55603 165.19 6.82803ZM166.859 10.284V7.50003H167.915V9.33603L166.859 10.284ZM8.90593 21.556V15.472H10.1299V21.556H8.90593ZM8.86993 14.272V12.976H10.1659V14.272H8.86993ZM15.778 21.556V17.848C15.778 17.376 15.658 17.032 15.418 16.816C15.186 16.6 14.898 16.492 14.554 16.492C14.21 16.492 13.914 16.604 13.666 16.828C13.418 17.044 13.294 17.384 13.294 17.848V21.556H12.07V15.472H13.27V16.084C13.478 15.852 13.722 15.68 14.002 15.568C14.29 15.456 14.586 15.4 14.89 15.4C15.202 15.4 15.482 15.448 15.73 15.544C15.986 15.64 16.206 15.776 16.39 15.952C16.622 16.184 16.782 16.444 16.87 16.732C16.958 17.012 17.002 17.324 17.002 17.668V21.556H15.778ZM23.3903 19.696C23.3903 20.016 23.3263 20.296 23.1983 20.536C23.0703 20.776 22.8943 20.98 22.6703 21.148C22.4463 21.308 22.1783 21.428 21.8663 21.508C21.5543 21.588 21.2183 21.628 20.8583 21.628C20.3623 21.628 19.9023 21.572 19.4783 21.46C19.0543 21.34 18.6623 21.104 18.3023 20.752L19.1063 19.948C19.3543 20.204 19.6303 20.376 19.9343 20.464C20.2463 20.544 20.5543 20.584 20.8583 20.584C21.2343 20.584 21.5503 20.516 21.8063 20.38C22.0623 20.244 22.1903 20.032 22.1903 19.744C22.1903 19.536 22.1263 19.372 21.9983 19.252C21.8783 19.124 21.6703 19.048 21.3743 19.024L20.4023 18.94C19.8263 18.892 19.3823 18.736 19.0703 18.472C18.7583 18.2 18.6023 17.796 18.6023 17.26C18.6023 16.964 18.6623 16.7 18.7823 16.468C18.9023 16.236 19.0663 16.044 19.2743 15.892C19.4823 15.732 19.7223 15.612 19.9943 15.532C20.2743 15.444 20.5743 15.4 20.8943 15.4C21.3503 15.4 21.7703 15.452 22.1543 15.556C22.5383 15.66 22.8703 15.836 23.1503 16.084L22.3823 16.864C22.1903 16.704 21.9623 16.592 21.6983 16.528C21.4423 16.456 21.1703 16.42 20.8823 16.42C20.5143 16.42 20.2383 16.492 20.0543 16.636C19.8703 16.78 19.7783 16.968 19.7783 17.2C19.7783 17.384 19.8343 17.54 19.9463 17.668C20.0663 17.788 20.2903 17.864 20.6183 17.896L21.5783 17.98C22.1543 18.028 22.5983 18.192 22.9103 18.472C23.2303 18.744 23.3903 19.152 23.3903 19.696ZM26.5734 21.556C26.2854 21.556 26.0374 21.508 25.8294 21.412C25.6214 21.316 25.4494 21.192 25.3134 21.04C25.1774 20.88 25.0734 20.7 25.0014 20.5C24.9374 20.292 24.9054 20.08 24.9054 19.864V16.516H24.2094V15.58H24.9054V13.732H26.1294V15.58H27.3054V16.516H26.1294V19.804C26.1294 20.028 26.1814 20.204 26.2854 20.332C26.3974 20.452 26.5694 20.512 26.8014 20.512H27.3054V21.556H26.5734ZM32.1038 21.556V21.004C31.8798 21.228 31.6478 21.388 31.4078 21.484C31.1678 21.58 30.8598 21.628 30.4838 21.628C30.0998 21.628 29.7758 21.584 29.5118 21.496C29.2558 21.4 29.0358 21.26 28.8518 21.076C28.5318 20.74 28.3718 20.304 28.3718 19.768C28.3718 19.256 28.5438 18.836 28.8878 18.508C29.2398 18.18 29.7678 18.016 30.4718 18.016H32.0798V17.584C32.0798 17.2 31.9758 16.916 31.7678 16.732C31.5678 16.54 31.2278 16.444 30.7478 16.444C30.4118 16.444 30.1478 16.488 29.9558 16.576C29.7638 16.664 29.5838 16.816 29.4158 17.032L28.6118 16.276C28.8998 15.94 29.2078 15.712 29.5358 15.592C29.8718 15.464 30.2918 15.4 30.7958 15.4C32.4678 15.4 33.3038 16.096 33.3038 17.488V21.556H32.1038ZM32.0798 18.868H30.6518C30.2918 18.868 30.0198 18.944 29.8358 19.096C29.6518 19.248 29.5598 19.464 29.5598 19.744C29.5598 20.024 29.6478 20.24 29.8238 20.392C30.0078 20.536 30.2918 20.608 30.6758 20.608C30.9078 20.608 31.1158 20.592 31.2998 20.56C31.4838 20.52 31.6558 20.42 31.8158 20.26C31.9918 20.084 32.0798 19.784 32.0798 19.36V18.868ZM36.8231 21.556C36.5351 21.556 36.2831 21.512 36.0671 21.424C35.8591 21.328 35.6871 21.204 35.5511 21.052C35.4151 20.9 35.3151 20.724 35.2511 20.524C35.1871 20.316 35.1551 20.1 35.1551 19.876V13.012H36.3791V19.804C36.3791 20.036 36.4271 20.212 36.5231 20.332C36.6191 20.452 36.7911 20.512 37.0391 20.512H37.5791V21.556H36.8231ZM40.5496 21.556C40.2616 21.556 40.0096 21.512 39.7936 21.424C39.5856 21.328 39.4136 21.204 39.2776 21.052C39.1416 20.9 39.0416 20.724 38.9776 20.524C38.9136 20.316 38.8816 20.1 38.8816 19.876V13.012H40.1056V19.804C40.1056 20.036 40.1536 20.212 40.2496 20.332C40.3456 20.452 40.5176 20.512 40.7656 20.512H41.3056V21.556H40.5496ZM43.2395 18.868C43.2395 19.396 43.3715 19.812 43.6355 20.116C43.8995 20.42 44.2835 20.572 44.7875 20.572C45.1315 20.572 45.4075 20.524 45.6155 20.428C45.8315 20.324 46.0475 20.164 46.2635 19.948L47.0435 20.68C46.8835 20.84 46.7235 20.98 46.5635 21.1C46.4115 21.212 46.2435 21.308 46.0595 21.388C45.8835 21.468 45.6875 21.528 45.4715 21.568C45.2635 21.608 45.0275 21.628 44.7635 21.628C44.3795 21.628 44.0195 21.576 43.6835 21.472C43.3555 21.36 43.0675 21.184 42.8195 20.944C42.5795 20.696 42.3875 20.372 42.2435 19.972C42.0995 19.572 42.0275 19.084 42.0275 18.508C42.0275 17.516 42.2595 16.752 42.7235 16.216C43.1955 15.672 43.8235 15.4 44.6075 15.4C45.0155 15.4 45.3795 15.472 45.6995 15.616C46.0195 15.76 46.2875 15.96 46.5035 16.216C46.7275 16.472 46.8955 16.78 47.0075 17.14C47.1275 17.5 47.1875 17.896 47.1875 18.328V18.868H43.2395ZM45.9755 18.016C45.9675 17.832 45.9515 17.684 45.9275 17.572C45.9115 17.452 45.8715 17.324 45.8075 17.188C45.7115 16.956 45.5595 16.772 45.3515 16.636C45.1435 16.492 44.8955 16.42 44.6075 16.42C44.3195 16.42 44.0675 16.492 43.8515 16.636C43.6435 16.772 43.4915 16.956 43.3955 17.188C43.3315 17.324 43.2915 17.452 43.2755 17.572C43.2595 17.684 43.2475 17.832 43.2395 18.016H45.9755ZM52.3003 21.556V20.908C52.0683 21.188 51.8243 21.38 51.5683 21.484C51.3203 21.58 51.0283 21.628 50.6923 21.628C50.3883 21.628 50.1043 21.58 49.8403 21.484C49.5843 21.388 49.3723 21.256 49.2043 21.088C49.0523 20.936 48.9283 20.76 48.8323 20.56C48.7443 20.36 48.6763 20.148 48.6283 19.924C48.5803 19.692 48.5483 19.456 48.5323 19.216C48.5243 18.976 48.5203 18.74 48.5203 18.508C48.5203 18.276 48.5243 18.04 48.5323 17.8C48.5483 17.56 48.5803 17.328 48.6283 17.104C48.6763 16.88 48.7443 16.668 48.8323 16.468C48.9283 16.268 49.0523 16.092 49.2043 15.94C49.3723 15.772 49.5843 15.64 49.8403 15.544C50.0963 15.448 50.3763 15.4 50.6803 15.4C51.0083 15.4 51.3003 15.448 51.5563 15.544C51.8123 15.64 52.0523 15.82 52.2763 16.084V13.012H53.5003V21.556H52.3003ZM52.2763 18.508C52.2763 18.236 52.2603 17.98 52.2283 17.74C52.2043 17.492 52.1483 17.276 52.0603 17.092C51.9723 16.908 51.8443 16.764 51.6763 16.66C51.5083 16.548 51.2883 16.492 51.0163 16.492C50.7363 16.492 50.5123 16.548 50.3443 16.66C50.1843 16.764 50.0563 16.908 49.9603 17.092C49.8723 17.276 49.8123 17.492 49.7803 17.74C49.7563 17.98 49.7443 18.236 49.7443 18.508C49.7443 18.78 49.7563 19.04 49.7803 19.288C49.8123 19.528 49.8723 19.744 49.9603 19.936C50.0563 20.12 50.1843 20.268 50.3443 20.38C50.5123 20.484 50.7363 20.536 51.0163 20.536C51.2883 20.536 51.5083 20.484 51.6763 20.38C51.8443 20.268 51.9723 20.12 52.0603 19.936C52.1483 19.744 52.2043 19.528 52.2283 19.288C52.2603 19.04 52.2763 18.78 52.2763 18.508ZM58.3239 21.556V15.472H59.5479V21.556H58.3239ZM58.2879 14.272V12.976H59.5839V14.272H58.2879ZM65.196 21.556V17.848C65.196 17.376 65.076 17.032 64.836 16.816C64.604 16.6 64.316 16.492 63.972 16.492C63.628 16.492 63.332 16.604 63.084 16.828C62.836 17.044 62.712 17.384 62.712 17.848V21.556H61.488V15.472H62.688V16.084C62.896 15.852 63.14 15.68 63.42 15.568C63.708 15.456 64.004 15.4 64.308 15.4C64.62 15.4 64.9 15.448 65.148 15.544C65.404 15.64 65.624 15.776 65.808 15.952C66.04 16.184 66.2 16.444 66.288 16.732C66.376 17.012 66.42 17.324 66.42 17.668V21.556H65.196ZM72.8231 21.556C72.5351 21.556 72.2831 21.512 72.0671 21.424C71.8591 21.328 71.6871 21.204 71.5511 21.052C71.4151 20.9 71.3151 20.724 71.2511 20.524C71.1871 20.316 71.1551 20.1 71.1551 19.876V13.012H72.3791V19.804C72.3791 20.036 72.4271 20.212 72.5231 20.332C72.6191 20.452 72.7911 20.512 73.0391 20.512H73.5791V21.556H72.8231ZM75.513 18.868C75.513 19.396 75.645 19.812 75.909 20.116C76.173 20.42 76.557 20.572 77.061 20.572C77.405 20.572 77.681 20.524 77.889 20.428C78.105 20.324 78.321 20.164 78.537 19.948L79.317 20.68C79.157 20.84 78.997 20.98 78.837 21.1C78.685 21.212 78.517 21.308 78.333 21.388C78.157 21.468 77.961 21.528 77.745 21.568C77.537 21.608 77.301 21.628 77.037 21.628C76.653 21.628 76.293 21.576 75.957 21.472C75.629 21.36 75.341 21.184 75.093 20.944C74.853 20.696 74.661 20.372 74.517 19.972C74.373 19.572 74.301 19.084 74.301 18.508C74.301 17.516 74.533 16.752 74.997 16.216C75.469 15.672 76.097 15.4 76.881 15.4C77.289 15.4 77.653 15.472 77.973 15.616C78.293 15.76 78.561 15.96 78.777 16.216C79.001 16.472 79.169 16.78 79.281 17.14C79.401 17.5 79.461 17.896 79.461 18.328V18.868H75.513ZM78.249 18.016C78.241 17.832 78.225 17.684 78.201 17.572C78.185 17.452 78.145 17.324 78.081 17.188C77.985 16.956 77.833 16.772 77.625 16.636C77.417 16.492 77.169 16.42 76.881 16.42C76.593 16.42 76.341 16.492 76.125 16.636C75.917 16.772 75.765 16.956 75.669 17.188C75.605 17.324 75.565 17.452 75.549 17.572C75.533 17.684 75.521 17.832 75.513 18.016H78.249ZM85.5817 19.696C85.5817 20.016 85.5177 20.296 85.3897 20.536C85.2617 20.776 85.0857 20.98 84.8617 21.148C84.6377 21.308 84.3697 21.428 84.0577 21.508C83.7457 21.588 83.4097 21.628 83.0497 21.628C82.5537 21.628 82.0937 21.572 81.6697 21.46C81.2457 21.34 80.8537 21.104 80.4937 20.752L81.2977 19.948C81.5457 20.204 81.8217 20.376 82.1257 20.464C82.4377 20.544 82.7457 20.584 83.0497 20.584C83.4257 20.584 83.7417 20.516 83.9977 20.38C84.2537 20.244 84.3817 20.032 84.3817 19.744C84.3817 19.536 84.3177 19.372 84.1897 19.252C84.0697 19.124 83.8617 19.048 83.5657 19.024L82.5937 18.94C82.0177 18.892 81.5737 18.736 81.2617 18.472C80.9497 18.2 80.7937 17.796 80.7937 17.26C80.7937 16.964 80.8537 16.7 80.9737 16.468C81.0937 16.236 81.2577 16.044 81.4657 15.892C81.6737 15.732 81.9137 15.612 82.1857 15.532C82.4657 15.444 82.7657 15.4 83.0857 15.4C83.5417 15.4 83.9617 15.452 84.3457 15.556C84.7297 15.66 85.0617 15.836 85.3417 16.084L84.5737 16.864C84.3817 16.704 84.1537 16.592 83.8897 16.528C83.6337 16.456 83.3617 16.42 83.0737 16.42C82.7057 16.42 82.4297 16.492 82.2457 16.636C82.0617 16.78 81.9697 16.968 81.9697 17.2C81.9697 17.384 82.0257 17.54 82.1377 17.668C82.2577 17.788 82.4817 17.864 82.8097 17.896L83.7697 17.98C84.3457 18.028 84.7897 18.192 85.1017 18.472C85.4217 18.744 85.5817 19.152 85.5817 19.696ZM91.4997 19.696C91.4997 20.016 91.4357 20.296 91.3077 20.536C91.1797 20.776 91.0037 20.98 90.7797 21.148C90.5557 21.308 90.2877 21.428 89.9757 21.508C89.6637 21.588 89.3277 21.628 88.9677 21.628C88.4717 21.628 88.0117 21.572 87.5877 21.46C87.1637 21.34 86.7717 21.104 86.4117 20.752L87.2157 19.948C87.4637 20.204 87.7397 20.376 88.0437 20.464C88.3557 20.544 88.6637 20.584 88.9677 20.584C89.3437 20.584 89.6597 20.516 89.9157 20.38C90.1717 20.244 90.2997 20.032 90.2997 19.744C90.2997 19.536 90.2357 19.372 90.1077 19.252C89.9877 19.124 89.7797 19.048 89.4837 19.024L88.5117 18.94C87.9357 18.892 87.4917 18.736 87.1797 18.472C86.8677 18.2 86.7117 17.796 86.7117 17.26C86.7117 16.964 86.7717 16.7 86.8917 16.468C87.0117 16.236 87.1757 16.044 87.3837 15.892C87.5917 15.732 87.8317 15.612 88.1037 15.532C88.3837 15.444 88.6837 15.4 89.0037 15.4C89.4597 15.4 89.8797 15.452 90.2637 15.556C90.6477 15.66 90.9797 15.836 91.2597 16.084L90.4917 16.864C90.2997 16.704 90.0717 16.592 89.8077 16.528C89.5517 16.456 89.2797 16.42 88.9917 16.42C88.6237 16.42 88.3477 16.492 88.1637 16.636C87.9797 16.78 87.8877 16.968 87.8877 17.2C87.8877 17.384 87.9437 17.54 88.0557 17.668C88.1757 17.788 88.3997 17.864 88.7277 17.896L89.6877 17.98C90.2637 18.028 90.7077 18.192 91.0197 18.472C91.3397 18.744 91.4997 19.152 91.4997 19.696ZM97.6828 21.556C97.3948 21.556 97.1468 21.508 96.9388 21.412C96.7308 21.316 96.5588 21.192 96.4228 21.04C96.2868 20.88 96.1828 20.7 96.1108 20.5C96.0468 20.292 96.0148 20.08 96.0148 19.864V16.516H95.3188V15.58H96.0148V13.732H97.2388V15.58H98.4148V16.516H97.2388V19.804C97.2388 20.028 97.2908 20.204 97.3948 20.332C97.5068 20.452 97.6788 20.512 97.9108 20.512H98.4148V21.556H97.6828ZM103.656 21.556V17.824C103.656 17.36 103.536 17.024 103.296 16.816C103.064 16.6 102.776 16.492 102.432 16.492C102.088 16.492 101.796 16.6 101.556 16.816C101.316 17.032 101.196 17.368 101.196 17.824V21.556H99.9723V13.012H101.196V16.084C101.404 15.852 101.64 15.68 101.904 15.568C102.176 15.456 102.464 15.4 102.768 15.4C103.104 15.4 103.404 15.456 103.668 15.568C103.932 15.672 104.152 15.824 104.328 16.024C104.512 16.216 104.648 16.452 104.736 16.732C104.832 17.004 104.88 17.304 104.88 17.632V21.556H103.656ZM110.045 21.556V21.004C109.821 21.228 109.589 21.388 109.349 21.484C109.109 21.58 108.801 21.628 108.425 21.628C108.041 21.628 107.717 21.584 107.453 21.496C107.197 21.4 106.977 21.26 106.793 21.076C106.473 20.74 106.313 20.304 106.313 19.768C106.313 19.256 106.485 18.836 106.829 18.508C107.181 18.18 107.709 18.016 108.413 18.016H110.021V17.584C110.021 17.2 109.917 16.916 109.709 16.732C109.509 16.54 109.169 16.444 108.689 16.444C108.353 16.444 108.089 16.488 107.897 16.576C107.705 16.664 107.525 16.816 107.357 17.032L106.553 16.276C106.841 15.94 107.149 15.712 107.477 15.592C107.813 15.464 108.233 15.4 108.737 15.4C110.409 15.4 111.245 16.096 111.245 17.488V21.556H110.045ZM110.021 18.868H108.593C108.233 18.868 107.961 18.944 107.777 19.096C107.593 19.248 107.501 19.464 107.501 19.744C107.501 20.024 107.589 20.24 107.765 20.392C107.949 20.536 108.233 20.608 108.617 20.608C108.849 20.608 109.057 20.592 109.241 20.56C109.425 20.52 109.597 20.42 109.757 20.26C109.933 20.084 110.021 19.784 110.021 19.36V18.868ZM116.84 21.556V17.848C116.84 17.376 116.72 17.032 116.48 16.816C116.248 16.6 115.96 16.492 115.616 16.492C115.272 16.492 114.976 16.604 114.728 16.828C114.48 17.044 114.356 17.384 114.356 17.848V21.556H113.132V15.472H114.332V16.084C114.54 15.852 114.784 15.68 115.064 15.568C115.352 15.456 115.648 15.4 115.952 15.4C116.264 15.4 116.544 15.448 116.792 15.544C117.048 15.64 117.268 15.776 117.452 15.952C117.684 16.184 117.844 16.444 117.932 16.732C118.02 17.012 118.064 17.324 118.064 17.668V21.556H116.84ZM126.112 21.556V21.004C125.888 21.228 125.656 21.388 125.416 21.484C125.176 21.58 124.868 21.628 124.492 21.628C124.108 21.628 123.784 21.584 123.52 21.496C123.264 21.4 123.044 21.26 122.86 21.076C122.54 20.74 122.38 20.304 122.38 19.768C122.38 19.256 122.552 18.836 122.896 18.508C123.248 18.18 123.776 18.016 124.48 18.016H126.088V17.584C126.088 17.2 125.984 16.916 125.776 16.732C125.576 16.54 125.236 16.444 124.756 16.444C124.42 16.444 124.156 16.488 123.964 16.576C123.772 16.664 123.592 16.816 123.424 17.032L122.62 16.276C122.908 15.94 123.216 15.712 123.544 15.592C123.88 15.464 124.3 15.4 124.804 15.4C126.476 15.4 127.312 16.096 127.312 17.488V21.556H126.112ZM126.088 18.868H124.66C124.3 18.868 124.028 18.944 123.844 19.096C123.66 19.248 123.568 19.464 123.568 19.744C123.568 20.024 123.656 20.24 123.832 20.392C124.016 20.536 124.3 20.608 124.684 20.608C124.916 20.608 125.124 20.592 125.308 20.56C125.492 20.52 125.664 20.42 125.824 20.26C126 20.084 126.088 19.784 126.088 19.36V18.868ZM138.034 21.556H136.99L135.562 17.308L134.146 21.556H133.09L131.206 15.472H132.502L133.678 19.756L135.094 15.472H136.042L137.446 19.756L138.622 15.472H139.93L138.034 21.556ZM141.806 18.868C141.806 19.396 141.938 19.812 142.202 20.116C142.466 20.42 142.85 20.572 143.354 20.572C143.698 20.572 143.974 20.524 144.182 20.428C144.398 20.324 144.614 20.164 144.83 19.948L145.61 20.68C145.45 20.84 145.29 20.98 145.13 21.1C144.978 21.212 144.81 21.308 144.626 21.388C144.45 21.468 144.254 21.528 144.038 21.568C143.83 21.608 143.594 21.628 143.33 21.628C142.946 21.628 142.586 21.576 142.25 21.472C141.922 21.36 141.634 21.184 141.386 20.944C141.146 20.696 140.954 20.372 140.81 19.972C140.666 19.572 140.594 19.084 140.594 18.508C140.594 17.516 140.826 16.752 141.29 16.216C141.762 15.672 142.39 15.4 143.174 15.4C143.582 15.4 143.946 15.472 144.266 15.616C144.586 15.76 144.854 15.96 145.07 16.216C145.294 16.472 145.462 16.78 145.574 17.14C145.694 17.5 145.754 17.896 145.754 18.328V18.868H141.806ZM144.542 18.016C144.534 17.832 144.518 17.684 144.494 17.572C144.478 17.452 144.438 17.324 144.374 17.188C144.278 16.956 144.126 16.772 143.918 16.636C143.71 16.492 143.462 16.42 143.174 16.42C142.886 16.42 142.634 16.492 142.418 16.636C142.21 16.772 142.058 16.956 141.962 17.188C141.898 17.324 141.858 17.452 141.842 17.572C141.826 17.684 141.814 17.832 141.806 18.016H144.542ZM148.275 18.868C148.275 19.396 148.407 19.812 148.671 20.116C148.935 20.42 149.319 20.572 149.823 20.572C150.167 20.572 150.443 20.524 150.651 20.428C150.867 20.324 151.083 20.164 151.299 19.948L152.079 20.68C151.919 20.84 151.759 20.98 151.599 21.1C151.447 21.212 151.279 21.308 151.095 21.388C150.919 21.468 150.723 21.528 150.507 21.568C150.299 21.608 150.063 21.628 149.799 21.628C149.415 21.628 149.055 21.576 148.719 21.472C148.391 21.36 148.103 21.184 147.855 20.944C147.615 20.696 147.423 20.372 147.279 19.972C147.135 19.572 147.063 19.084 147.063 18.508C147.063 17.516 147.295 16.752 147.759 16.216C148.231 15.672 148.859 15.4 149.643 15.4C150.051 15.4 150.415 15.472 150.735 15.616C151.055 15.76 151.323 15.96 151.539 16.216C151.763 16.472 151.931 16.78 152.043 17.14C152.163 17.5 152.223 17.896 152.223 18.328V18.868H148.275ZM151.011 18.016C151.003 17.832 150.987 17.684 150.963 17.572C150.947 17.452 150.907 17.324 150.843 17.188C150.747 16.956 150.595 16.772 150.387 16.636C150.179 16.492 149.931 16.42 149.643 16.42C149.355 16.42 149.103 16.492 148.887 16.636C148.679 16.772 148.527 16.956 148.431 17.188C148.367 17.324 148.327 17.452 148.311 17.572C148.295 17.684 148.283 17.832 148.275 18.016H151.011ZM157.671 21.556L155.967 18.748L155.067 19.768V21.556H153.843V13.012H155.067V18.28L157.431 15.472H158.919L156.807 17.86L159.183 21.556H157.671ZM160.382 21.556V20.092H161.846V21.556H160.382Z" fill="#F2F2EE"/>
</svg>
