<svg width="1584" height="281" viewBox="0 0 1584 281" fill="none" xmlns="http://www.w3.org/2000/svg">
<path d="M201.18 277.783V93.626L137.731 227.875H106.78L41.7836 93.626V277.783H3.958e-05V2.32128H41.7836L122.256 173.711L201.18 2.32128H242.964V277.783H201.18ZM304.663 188.8V152.046H417.633V188.8H304.663ZM651.613 199.246C651.613 211.884 649.163 223.232 644.263 233.291C639.362 243.35 632.527 251.862 623.758 258.826C614.988 265.79 604.542 271.077 592.42 274.688C580.298 278.299 567.015 280.104 552.571 280.104C531.679 280.104 513.496 277.396 498.02 271.98C482.545 266.563 468.23 257.149 455.076 243.737L482.932 216.268C492.991 226.327 503.695 233.291 515.043 237.16C526.392 240.771 539.159 242.577 553.345 242.577C571.399 242.577 585.327 238.966 595.128 231.744C605.187 224.264 610.217 213.818 610.217 200.406C610.217 187.768 606.606 178.225 599.384 171.777C595.773 168.424 591.904 165.973 587.777 164.426C583.651 162.878 577.461 161.46 569.207 160.17L536.709 155.528C514.269 152.432 496.86 145.082 484.479 133.475C471.067 120.837 464.361 103.298 464.361 80.8588C464.361 68.9944 466.425 58.1616 470.551 48.3605C474.936 38.3015 480.997 29.6611 488.735 22.4393C496.731 15.2174 506.403 9.67208 517.751 5.80324C529.1 1.93438 541.996 -4.83135e-05 556.44 -4.83135e-05C574.752 -4.83135e-05 590.615 2.45022 604.027 7.35076C617.439 12.2513 630.077 20.2469 641.941 31.3376L615.246 57.6458C606.735 49.3922 597.45 43.8469 587.391 41.0097C577.589 37.9146 566.886 36.3671 555.279 36.3671C539.03 36.3671 526.521 40.4939 517.751 48.7474C509.24 56.743 504.984 66.931 504.984 79.3113C504.984 84.4698 505.758 89.2413 507.305 93.626C509.111 97.7528 511.819 101.493 515.43 104.846C522.652 111.294 532.969 115.549 546.381 117.613L577.718 122.255C590.615 124.319 600.932 127.027 608.669 130.38C616.407 133.475 623.242 137.602 629.174 142.76C636.654 149.466 642.199 157.591 645.81 167.134C649.679 176.677 651.613 187.381 651.613 199.246ZM861.244 277.783V157.462H749.435V277.783H707.651V2.32128H749.435V119.934H861.244V2.32128H903.028V277.783H861.244ZM975.146 277.783V2.32128H1016.93V240.255H1149.63V277.783H975.146ZM1259.56 39.8491V277.783H1217.78V39.8491H1141.95V2.32128H1335.39V39.8491H1259.56ZM1534.86 277.783L1476.82 161.718H1424.59V277.783H1382.81V2.32128H1489.59C1502.74 2.32128 1514.48 4.38466 1524.8 8.51142C1535.37 12.3803 1544.4 17.9256 1551.88 25.1474C1559.36 32.1114 1565.03 40.6228 1568.9 50.6818C1573.03 60.4829 1575.09 71.1867 1575.09 82.7933C1575.09 102.653 1569.8 118.774 1559.23 131.154C1548.65 143.276 1535.63 151.53 1520.15 155.914L1583.6 277.783H1534.86ZM1533.31 83.1801C1533.31 69.5102 1528.92 58.9354 1520.15 51.4556C1511.64 43.7179 1500.42 39.8491 1486.5 39.8491H1424.59V126.124H1486.5C1500.42 126.124 1511.64 122.384 1520.15 114.905C1528.92 107.425 1533.31 96.8501 1533.31 83.1801Z" fill="#F2F2EE"/>
</svg>
