<svg width="1129" height="281" viewBox="0 0 1129 281" fill="none" xmlns="http://www.w3.org/2000/svg">
<path d="M196.537 199.246C196.537 211.884 194.087 223.232 189.187 233.291C184.286 243.35 177.451 251.862 168.682 258.826C159.912 265.79 149.466 271.077 137.344 274.688C125.222 278.299 111.939 280.104 97.4949 280.104C76.6031 280.104 58.4195 277.396 42.9442 271.98C27.4688 266.563 13.154 257.149 -3.03616e-05 243.737L27.8557 216.268C37.9147 226.327 48.6185 233.291 59.9671 237.16C71.3157 240.771 84.0829 242.577 98.2686 242.577C116.323 242.577 130.251 238.966 140.052 231.744C150.111 224.264 155.141 213.818 155.141 200.406C155.141 187.768 151.53 178.225 144.308 171.777C140.697 168.424 136.828 165.973 132.701 164.426C128.575 162.878 122.384 161.46 114.131 160.17L81.6326 155.528C59.1933 152.432 41.7835 145.082 29.4032 133.475C15.9912 120.837 9.2852 103.298 9.2852 80.8588C9.2852 68.9944 11.3486 58.1616 15.4754 48.3605C19.86 38.3015 25.9212 29.6611 33.6589 22.4393C41.6545 15.2174 51.3267 9.67208 62.6753 5.80324C74.0239 1.93438 86.92 -4.83135e-05 101.364 -4.83135e-05C119.676 -4.83135e-05 135.539 2.45022 148.951 7.35076C162.363 12.2513 175.001 20.2469 186.865 31.3376L160.17 57.6458C151.659 49.3922 142.373 43.8469 132.314 41.0097C122.513 37.9146 111.81 36.3671 100.203 36.3671C83.9539 36.3671 71.4447 40.4939 62.6753 48.7474C54.1638 56.743 49.9081 66.931 49.9081 79.3113C49.9081 84.4698 50.6818 89.2413 52.2294 93.626C54.0348 97.7528 56.743 101.493 60.354 104.846C67.5758 111.294 77.8927 115.549 91.3047 117.613L122.642 122.255C135.539 124.319 145.855 127.027 153.593 130.38C161.331 133.475 168.166 137.602 174.098 142.76C181.578 149.466 187.123 157.591 190.734 167.134C194.603 176.677 196.537 187.381 196.537 199.246ZM406.168 277.783V157.462H294.359V277.783H252.575V2.32128H294.359V119.934H406.168V2.32128H447.952V277.783H406.168ZM520.069 277.783V2.32128H561.853V240.255H694.554V277.783H520.069ZM804.484 39.8491V277.783H762.701V39.8491H686.871V2.32128H880.313V39.8491H804.484ZM1079.78 277.783L1021.75 161.718H969.518V277.783H927.734V2.32128H1034.51C1047.67 2.32128 1059.4 4.38466 1069.72 8.51142C1080.3 12.3803 1089.32 17.9256 1096.8 25.1474C1104.28 32.1114 1109.96 40.6228 1113.83 50.6818C1117.95 60.4829 1120.02 71.1867 1120.02 82.7933C1120.02 102.653 1114.73 118.774 1104.15 131.154C1093.58 143.276 1080.55 151.53 1065.08 155.914L1128.53 277.783H1079.78ZM1078.23 83.1801C1078.23 69.5102 1073.85 58.9354 1065.08 51.4556C1056.57 43.7179 1045.35 39.8491 1031.42 39.8491H969.518V126.124H1031.42C1045.35 126.124 1056.57 122.384 1065.08 114.905C1073.85 107.425 1078.23 96.8501 1078.23 83.1801Z" fill="#272727"/>
</svg>
