<svg width="14" height="12" viewBox="0 0 14 12" fill="none" xmlns="http://www.w3.org/2000/svg">
<rect x="6" y="0.335327" width="1.09091" height="1.09091" rx="0.218182" fill="#BCB5AF"/>
<rect x="6" y="2.42627" width="1.09091" height="1.09091" rx="0.218182" fill="#BCB5AF"/>
<rect x="6" y="4.42627" width="1.09091" height="1.09091" rx="0.218182" fill="#BCB5AF"/>
<rect x="6" y="6.42627" width="1.09091" height="1.09091" rx="0.218182" fill="#BCB5AF"/>
<rect x="6" y="8.42627" width="1.09091" height="1.09091" rx="0.218182" fill="#BCB5AF"/>
<rect x="6" y="10.4263" width="1.09091" height="1.09091" rx="0.218182" fill="#BCB5AF"/>
<rect x="8" y="9.42627" width="1.09091" height="1.09091" rx="0.218182" fill="#BCB5AF"/>
<rect x="10" y="8.42627" width="1.09091" height="1.09091" rx="0.218182" fill="#BCB5AF"/>
<rect x="12" y="6.42627" width="1.09091" height="1.09091" rx="0.218182" fill="#BCB5AF"/>
<rect x="4" y="9.42627" width="1.09091" height="1.09091" rx="0.218182" fill="#BCB5AF"/>
<rect x="2" y="8.42627" width="1.09091" height="1.09091" rx="0.218182" fill="#BCB5AF"/>
<rect y="6.42627" width="1.09091" height="1.09091" rx="0.218182" fill="#BCB5AF"/>
</svg>
