<svg width="34" height="34" viewBox="0 0 34 34" fill="none" xmlns="http://www.w3.org/2000/svg">
<rect y="30.9094" width="3.09091" height="3.09091" rx="0.618182" fill="#F2F2EE"/>
<rect x="6.18188" y="24.7273" width="3.09091" height="3.09091" rx="0.618182" fill="#F2F2EE"/>
<rect x="12.3635" y="18.5461" width="3.09091" height="3.09091" rx="0.618182" fill="#F2F2EE"/>
<rect x="18.5454" y="12.3633" width="3.09091" height="3.09091" rx="0.618182" fill="#F2F2EE"/>
<rect x="24.7273" y="6.18188" width="3.09091" height="3.09091" rx="0.618182" fill="#F2F2EE"/>
<rect x="30.9092" width="3.09091" height="3.09091" rx="0.618182" fill="#F2F2EE"/>
<rect x="24.7273" width="3.09091" height="3.09091" rx="0.618182" fill="#F2F2EE"/>
<rect x="18.5454" width="3.09091" height="3.09091" rx="0.618182" fill="#F2F2EE"/>
<rect x="12.3635" width="3.09091" height="3.09091" rx="0.618182" fill="#F2F2EE"/>
<rect x="6.18188" width="3.09091" height="3.09091" rx="0.618182" fill="#F2F2EE"/>
<rect width="3.09091" height="3.09091" rx="0.618182" fill="#F2F2EE"/>
<rect x="30.9092" y="30.9094" width="3.09091" height="3.09091" rx="0.618182" fill="#F2F2EE"/>
<rect x="30.9092" y="6.18188" width="3.09091" height="3.09091" rx="0.618182" fill="#F2F2EE"/>
<rect x="30.9092" y="12.3633" width="3.09091" height="3.09091" rx="0.618182" fill="#F2F2EE"/>
<rect x="30.9092" y="18.5461" width="3.09091" height="3.09091" rx="0.618182" fill="#F2F2EE"/>
<rect x="30.9092" y="24.7273" width="3.09091" height="3.09091" rx="0.618182" fill="#F2F2EE"/>
</svg>
