<svg width="32" height="32" viewBox="0 0 32 32" fill="none" xmlns="http://www.w3.org/2000/svg">
<path d="M22.3822 12.8089H19.1911V9.61775C19.1911 9.19458 19.023 8.78874 18.7238 8.48952C18.4246 8.19029 18.0187 8.02219 17.5956 8.02219H9.61775C9.19458 8.02219 8.78874 8.19029 8.48952 8.48952C8.19029 8.78874 8.02219 9.19458 8.02219 9.61775V17.5956C8.02219 18.0187 8.19029 18.4246 8.48952 18.7238C8.78874 19.023 9.19458 19.1911 9.61775 19.1911H12.8089V22.3822C12.8089 22.8054 12.977 23.2113 13.2762 23.5105C13.5754 23.8097 13.9813 23.9778 14.4044 23.9778H22.3822C22.8054 23.9778 23.2113 23.8097 23.5105 23.5105C23.8097 23.2113 23.9778 22.8054 23.9778 22.3822V14.4044C23.9778 13.9813 23.8097 13.5754 23.5105 13.2762C23.2113 12.977 22.8054 12.8089 22.3822 12.8089ZM12.8089 14.4044V16H11.2133V11.2133H16V12.8089H14.4044C13.9813 12.8089 13.5754 12.977 13.2762 13.2762C12.977 13.5754 12.8089 13.9813 12.8089 14.4044ZM20.7867 20.7867H16V16H20.7867V20.7867ZM30.3601 26.0201V5.97987C30.7916 5.73984 31.1615 5.40295 31.4408 4.9957C31.72 4.58845 31.9009 4.12196 31.9693 3.63292C32.0376 3.14389 31.9916 2.64567 31.8347 2.17746C31.6779 1.70924 31.4145 1.28382 31.0653 0.934659C30.7162 0.585499 30.2908 0.32213 29.8225 0.165278C29.3543 0.00842515 28.8561 -0.0376318 28.3671 0.0307312C27.878 0.0990941 27.4115 0.280012 27.0043 0.559247C26.597 0.838483 26.2602 1.20842 26.0201 1.63994H5.97987C5.73984 1.20842 5.40295 0.838483 4.9957 0.559247C4.58845 0.280012 4.12196 0.0990941 3.63292 0.0307312C3.14389 -0.0376318 2.64567 0.00842515 2.17746 0.165278C1.70924 0.32213 1.28382 0.585499 0.934659 0.934659C0.585499 1.28382 0.32213 1.70924 0.165278 2.17746C0.00842515 2.64567 -0.0376318 3.14389 0.0307312 3.63292C0.0990941 4.12196 0.280012 4.58845 0.559247 4.9957C0.838483 5.40295 1.20842 5.73984 1.63994 5.97987V26.0201C1.20842 26.2602 0.838483 26.597 0.559247 27.0043C0.280012 27.4115 0.0990941 27.878 0.0307312 28.3671C-0.0376318 28.8561 0.00842515 29.3543 0.165278 29.8225C0.32213 30.2908 0.585499 30.7162 0.934659 31.0653C1.28382 31.4145 1.70924 31.6779 2.17746 31.8347C2.64567 31.9916 3.14389 32.0376 3.63292 31.9693C4.12196 31.9009 4.58845 31.72 4.9957 31.4408C5.40295 31.1615 5.73984 30.7916 5.97987 30.3601H26.0201C26.2602 30.7916 26.597 31.1615 27.0043 31.4408C27.4115 31.72 27.878 31.9009 28.3671 31.9693C28.8561 32.0376 29.3543 31.9916 29.8225 31.8347C30.2908 31.6779 30.7162 31.4145 31.0653 31.0653C31.4145 30.7162 31.6779 30.2908 31.8347 29.8225C31.9916 29.3543 32.0376 28.8561 31.9693 28.3671C31.9009 27.878 31.72 27.4115 31.4408 27.0043C31.1615 26.597 30.7916 26.2602 30.3601 26.0201ZM27.1689 26.0201C26.6891 26.2921 26.2921 26.6891 26.0201 27.1689H5.97987C5.70794 26.6891 5.3109 26.2921 4.83107 26.0201V5.97987C5.3109 5.70794 5.70794 5.3109 5.97987 4.83107H26.0201C26.2921 5.3109 26.6891 5.70794 27.1689 5.97987V26.0201Z" fill="#272727"/>
</svg>
