<svg width="31" height="31" viewBox="0 0 31 31" fill="none" xmlns="http://www.w3.org/2000/svg">
<path d="M29.45 27.9H27.528L20.7235 3.41C20.4524 2.43003 19.8675 1.56595 19.0584 0.950067C18.2494 0.334187 17.2608 0.000463162 16.244 0H14.694C13.6879 0.0139014 12.7134 0.353798 11.9168 0.968661C11.1203 1.58352 10.5447 2.44017 10.2765 3.41L3.472 27.9H1.55C1.13891 27.9 0.744666 28.0633 0.453984 28.354C0.163303 28.6447 0 29.0389 0 29.45C0 29.8611 0.163303 30.2553 0.453984 30.546C0.744666 30.8367 1.13891 31 1.55 31H29.45C29.8611 31 30.2553 30.8367 30.546 30.546C30.8367 30.2553 31 29.8611 31 29.45C31 29.0389 30.8367 28.6447 30.546 28.354C30.2553 28.0633 29.8611 27.9 29.45 27.9ZM13.268 4.2315C13.3618 3.89623 13.5657 3.60229 13.8468 3.39703C14.128 3.19177 14.4701 3.08714 14.818 3.1H16.368C16.7159 3.08714 17.058 3.19177 17.3392 3.39703C17.6203 3.60229 17.8242 3.89623 17.918 4.2315L19.1425 9.3H11.8575L13.268 4.2315ZM10.9895 12.4H20.0105L21.7 18.6H9.3L10.9895 12.4ZM6.696 27.9L8.4165 21.7H22.5835L24.304 27.9H6.696Z" fill="#272727"/>
</svg>
