<svg width="30" height="33" viewBox="0 0 30 33" fill="none" xmlns="http://www.w3.org/2000/svg">
<path d="M28.6333 13.5135C27.4345 13.2987 26.2183 13.1938 25 13.2C24.3 13.2 23.6167 13.2 22.9334 13.332C22.0827 12.2081 20.9968 11.2795 19.7501 10.6095C20.821 9.45162 21.4155 7.93894 21.4167 6.369C21.4167 4.67984 20.7389 3.05986 19.5325 1.86544C18.326 0.671018 16.6897 0 14.9834 0C13.2772 0 11.6409 0.671018 10.4344 1.86544C9.22795 3.05986 8.55016 4.67984 8.55016 6.369C8.55138 7.93894 9.14591 9.45162 10.2168 10.6095C8.97748 11.283 7.89337 12.2045 7.0335 13.3155C6.38351 13.2 5.70018 13.2 5.00018 13.2C3.7809 13.2047 2.56465 13.3207 1.36688 13.5465C0.978618 13.6168 0.628154 13.8212 0.377884 14.1234C0.127615 14.4255 -0.00621529 14.8058 0.000221848 15.1965V28.809C-0.000175786 29.0514 0.05338 29.2909 0.157081 29.5105C0.260782 29.7301 0.412081 29.9244 0.600217 30.0795C0.787167 30.2356 1.00652 30.349 1.2427 30.4117C1.47889 30.4744 1.72612 30.485 1.96687 30.4425C2.96422 30.2275 3.97981 30.1059 5.00018 30.0795C8.22865 30.076 11.3871 31.0112 14.0835 32.769L14.3001 32.8515C14.5212 32.9465 14.7591 32.997 15.0001 33C15.1592 32.998 15.3168 32.9702 15.4668 32.9175H15.5834L15.8001 32.835C18.5221 31.0321 21.725 30.0728 25 30.0795C26.0183 30.0842 27.0339 30.1836 28.0333 30.3765C28.2741 30.419 28.5213 30.4084 28.7575 30.3457C28.9937 30.283 29.2131 30.1696 29.4 30.0135C29.5881 29.8584 29.7394 29.6641 29.8431 29.4445C29.9468 29.2249 30.0004 28.9854 30 28.743V15.1305C29.9986 14.7455 29.8612 14.373 29.6116 14.0777C29.362 13.7824 29.0159 13.5828 28.6333 13.5135ZM15.0001 3.3C15.7809 3.35679 16.511 3.70391 17.0439 4.27166C17.5768 4.8394 17.8729 5.58573 17.8729 6.36075C17.8729 7.13577 17.5768 7.8821 17.0439 8.44984C16.511 9.01759 15.7809 9.36471 15.0001 9.4215C14.2194 9.36471 13.4892 9.01759 12.9564 8.44984C12.4235 7.8821 12.1273 7.13577 12.1273 6.36075C12.1273 5.58573 12.4235 4.8394 12.9564 4.27166C13.4892 3.70391 14.2194 3.35679 15.0001 3.3ZM13.3335 28.5945C10.7213 27.3991 7.87794 26.7798 5.00018 26.7795C4.45019 26.7795 3.90019 26.7795 3.33353 26.862V16.5C4.73112 16.3452 6.14321 16.373 7.5335 16.5825H7.71683C9.70281 16.9438 11.6059 17.6595 13.3335 18.6945V28.5945ZM15.0001 15.84C14.259 15.4167 13.4907 15.0419 12.7001 14.718H12.6001C12.0501 14.5035 11.5001 14.289 10.9335 14.124C12.0907 13.2122 13.5213 12.7072 15.0001 12.6885C16.475 12.6978 17.9052 13.191 19.0667 14.091C17.6519 14.5283 16.2886 15.1147 15.0001 15.84ZM26.6667 26.862C23.2445 26.5216 19.7925 27.0912 16.6668 28.512V18.612C18.3974 17.6035 20.3017 16.921 22.2834 16.599H22.6167C23.9567 16.3924 25.3181 16.3591 26.6667 16.5V26.862Z" fill="#272727"/>
</svg>
