<svg width="29" height="32" viewBox="0 0 29 32" fill="none" xmlns="http://www.w3.org/2000/svg">
<path d="M16.1059 28.8H4.83178C4.40462 28.8 3.99496 28.6314 3.69292 28.3314C3.39087 28.0313 3.22118 27.6243 3.22118 27.2V4.8C3.22118 4.37565 3.39087 3.96869 3.69292 3.66863C3.99496 3.36857 4.40462 3.2 4.83178 3.2H12.8847V8C12.8847 9.27304 13.3938 10.4939 14.2999 11.3941C15.2061 12.2943 16.435 12.8 17.7165 12.8H22.5483V16C22.5483 16.4243 22.718 16.8313 23.02 17.1314C23.3221 17.4314 23.7317 17.6 24.1589 17.6C24.586 17.6 24.9957 17.4314 25.2977 17.1314C25.5998 16.8313 25.7695 16.4243 25.7695 16V11.2C25.7695 11.2 25.7695 11.2 25.7695 11.104C25.7527 10.957 25.7203 10.8122 25.6728 10.672V10.528C25.5954 10.3635 25.4921 10.2123 25.3668 10.08L15.7033 0.48C15.5701 0.355546 15.4179 0.25293 15.2523 0.176C15.2042 0.169216 15.1554 0.169216 15.1074 0.176C14.9437 0.082786 14.763 0.0229507 14.5759 0H4.83178C3.55031 0 2.32133 0.505713 1.41519 1.40589C0.509061 2.30606 0 3.52696 0 4.8V27.2C0 28.473 0.509061 29.6939 1.41519 30.5941C2.32133 31.4943 3.55031 32 4.83178 32H16.1059C16.5331 32 16.9427 31.8314 17.2448 31.5314C17.5468 31.2313 17.7165 30.8243 17.7165 30.4C17.7165 29.9757 17.5468 29.5687 17.2448 29.2686C16.9427 28.9686 16.5331 28.8 16.1059 28.8ZM16.1059 5.456L20.2774 9.6H17.7165C17.2894 9.6 16.8797 9.43143 16.5777 9.13137C16.2756 8.83131 16.1059 8.42435 16.1059 8V5.456ZM8.05296 9.6C7.62581 9.6 7.21615 9.76857 6.9141 10.0686C6.61206 10.3687 6.44237 10.7757 6.44237 11.2C6.44237 11.6243 6.61206 12.0313 6.9141 12.3314C7.21615 12.6314 7.62581 12.8 8.05296 12.8H9.66355C10.0907 12.8 10.5004 12.6314 10.8024 12.3314C11.1045 12.0313 11.2741 11.6243 11.2741 11.2C11.2741 10.7757 11.1045 10.3687 10.8024 10.0686C10.5004 9.76857 10.0907 9.6 9.66355 9.6H8.05296ZM17.7165 16H8.05296C7.62581 16 7.21615 16.1686 6.9141 16.4686C6.61206 16.7687 6.44237 17.1757 6.44237 17.6C6.44237 18.0243 6.61206 18.4313 6.9141 18.7314C7.21615 19.0314 7.62581 19.2 8.05296 19.2H17.7165C18.1437 19.2 18.5533 19.0314 18.8554 18.7314C19.1574 18.4313 19.3271 18.0243 19.3271 17.6C19.3271 17.1757 19.1574 16.7687 18.8554 16.4686C18.5533 16.1686 18.1437 16 17.7165 16ZM28.5236 24.464L25.3024 21.264C25.1492 21.1183 24.9686 21.0042 24.7709 20.928C24.3788 20.768 23.939 20.768 23.5469 20.928C23.3492 21.0042 23.1685 21.1183 23.0154 21.264L19.7942 24.464C19.4909 24.7653 19.3205 25.1739 19.3205 25.6C19.3205 26.0261 19.4909 26.4347 19.7942 26.736C20.0975 27.0373 20.5088 27.2065 20.9377 27.2065C21.3666 27.2065 21.7779 27.0373 22.0812 26.736L22.5483 26.256V30.4C22.5483 30.8243 22.718 31.2313 23.02 31.5314C23.3221 31.8314 23.7317 32 24.1589 32C24.586 32 24.9957 31.8314 25.2977 31.5314C25.5998 31.2313 25.7695 30.8243 25.7695 30.4V26.256L26.2365 26.736C26.3863 26.886 26.5644 27.005 26.7607 27.0862C26.9569 27.1675 27.1674 27.2093 27.3801 27.2093C27.5927 27.2093 27.8032 27.1675 27.9995 27.0862C28.1957 27.005 28.3739 26.886 28.5236 26.736C28.6745 26.5873 28.7944 26.4103 28.8761 26.2153C28.9579 26.0203 29 25.8112 29 25.6C29 25.3888 28.9579 25.1797 28.8761 24.9847C28.7944 24.7897 28.6745 24.6127 28.5236 24.464ZM14.4953 25.6C14.9225 25.6 15.3321 25.4314 15.6342 25.1314C15.9362 24.8313 16.1059 24.4243 16.1059 24C16.1059 23.5757 15.9362 23.1687 15.6342 22.8686C15.3321 22.5686 14.9225 22.4 14.4953 22.4H8.05296C7.62581 22.4 7.21615 22.5686 6.9141 22.8686C6.61206 23.1687 6.44237 23.5757 6.44237 24C6.44237 24.4243 6.61206 24.8313 6.9141 25.1314C7.21615 25.4314 7.62581 25.6 8.05296 25.6H14.4953Z" fill="#272727"/>
</svg>
