<svg width="30" height="30" viewBox="0 0 30 30" fill="none" xmlns="http://www.w3.org/2000/svg">
<path d="M28.4982 10.5047C28.7953 10.5047 29.0856 10.4162 29.3326 10.2503C29.5795 10.0845 29.772 9.84879 29.8857 9.57301C29.9994 9.29724 30.0291 8.99378 29.9711 8.70102C29.9132 8.40826 29.7702 8.13934 29.5601 7.92828C29.3501 7.71721 29.0825 7.57347 28.7912 7.51523C28.4999 7.457 28.198 7.48689 27.9235 7.60112C27.6491 7.71535 27.4146 7.90879 27.2496 8.15698C27.0846 8.40517 26.9965 8.69696 26.9965 8.99546C26.9965 9.39573 27.1547 9.77961 27.4363 10.0626C27.718 10.3457 28.0999 10.5047 28.4982 10.5047ZM23.993 10.5047C24.29 10.5047 24.5803 10.4162 24.8273 10.2503C25.0743 10.0845 25.2667 9.84879 25.3804 9.57301C25.4941 9.29724 25.5238 8.99378 25.4659 8.70102C25.4079 8.40826 25.2649 8.13934 25.0549 7.92828C24.8448 7.71721 24.5773 7.57347 24.2859 7.51523C23.9946 7.457 23.6927 7.48689 23.4183 7.60112C23.1439 7.71535 22.9093 7.90879 22.7443 8.15698C22.5793 8.40517 22.4912 8.69696 22.4912 8.99546C22.4912 9.39573 22.6494 9.77961 22.9311 10.0626C23.2127 10.3457 23.5947 10.5047 23.993 10.5047ZM19.4877 10.5047C19.7847 10.5047 20.075 10.4162 20.322 10.2503C20.569 10.0845 20.7615 9.84879 20.8751 9.57301C20.9888 9.29724 21.0185 8.99378 20.9606 8.70102C20.9026 8.40826 20.7596 8.13934 20.5496 7.92828C20.3396 7.71721 20.072 7.57347 19.7807 7.51523C19.4893 7.457 19.1874 7.48689 18.913 7.60112C18.6386 7.71535 18.404 7.90879 18.239 8.15698C18.074 8.40517 17.9859 8.69696 17.9859 8.99546C17.9859 9.19365 18.0248 9.38991 18.1002 9.57301C18.1757 9.75612 18.2863 9.9225 18.4258 10.0626C18.5652 10.2028 18.7308 10.314 18.913 10.3898C19.0952 10.4656 19.2905 10.5047 19.4877 10.5047ZM26.1555 16.5416C25.8251 16.5416 25.4797 16.4359 25.1493 16.3605C24.4803 16.2123 23.8228 16.0156 23.182 15.7719C22.4853 15.5172 21.7195 15.5304 21.032 15.809C20.3444 16.0876 19.7836 16.612 19.4576 17.2811L19.1273 17.9603C17.6623 17.139 16.3137 16.1238 15.1176 14.9418C13.9472 13.7403 12.9375 12.3908 12.114 10.9273L12.7748 10.5047C13.4406 10.1771 13.9624 9.61353 14.2396 8.92255C14.5169 8.23157 14.53 7.46195 14.2766 6.76181C14.0381 6.11649 13.8425 5.45602 13.6909 4.78472C13.6158 4.4376 13.5557 4.10557 13.5107 3.75845C13.3283 2.69538 12.7742 1.73268 11.9483 1.04371C11.1223 0.354749 10.0787 -0.0152037 9.00539 0.000478881H4.50011C3.86523 -0.000356878 3.23735 0.133665 2.65763 0.393759C2.0779 0.653852 1.55941 1.03414 1.13617 1.5097C0.706195 1.99642 0.385694 2.57058 0.196509 3.19305C0.00732346 3.81552 -0.0461 4.47166 0.0398798 5.11675C0.830875 11.4359 3.69273 17.3107 8.17401 21.8142C12.6553 26.3178 18.501 29.1938 24.7889 29.9888C24.9838 30.0037 25.1796 30.0037 25.3746 29.9888C26.5695 29.9888 27.7154 29.5118 28.5603 28.6627C29.4052 27.8135 29.8799 26.6619 29.8799 25.4611V20.9334C29.8643 19.8803 29.4838 18.8656 28.804 18.064C28.1243 17.2624 27.1877 16.724 26.1555 16.5416ZM26.8914 25.5969C26.8938 25.8157 26.8489 26.0324 26.7598 26.232C26.6707 26.4316 26.5394 26.6093 26.3751 26.7529C26.2108 26.8965 26.0175 27.0024 25.8084 27.0634C25.5993 27.1244 25.3796 27.139 25.1643 27.1062C19.557 26.3708 14.3473 23.7981 10.342 19.7864C6.33976 15.7339 3.78413 10.4646 3.07344 4.79981C3.04081 4.57846 3.05757 4.35259 3.12251 4.13855C3.18744 3.92451 3.29892 3.72766 3.44888 3.56225C3.58793 3.40316 3.75873 3.27525 3.9502 3.18684C4.14166 3.09844 4.34949 3.05151 4.56018 3.04911H9.06546C9.41469 3.0413 9.7557 3.15609 10.0298 3.3737C10.3039 3.59132 10.494 3.89816 10.5672 4.2414C10.6273 4.65392 10.7024 5.06141 10.7925 5.46387C10.966 6.25945 11.1968 7.04128 11.4833 7.80317L9.38083 8.78417C9.20107 8.86705 9.03936 8.98481 8.90501 9.13068C8.77065 9.27654 8.66629 9.44764 8.59792 9.63415C8.52954 9.82067 8.4985 10.0189 8.50658 10.2175C8.51465 10.4161 8.56168 10.6112 8.64497 10.7914C10.8063 15.444 14.5277 19.1839 19.1573 21.356C19.5229 21.507 19.933 21.507 20.2986 21.356C20.6713 21.2166 20.9737 20.9344 21.1396 20.5712L22.0857 18.4583C22.8621 18.7373 23.6544 18.9692 24.4585 19.1525C24.849 19.2431 25.2695 19.3186 25.6749 19.3789C26.0137 19.4556 26.3156 19.6479 26.5291 19.9231C26.7427 20.1982 26.8548 20.5393 26.8463 20.8882L26.8914 25.5969Z" fill="#272727"/>
</svg>
