<svg width="31" height="31" viewBox="0 0 31 31" fill="none" xmlns="http://www.w3.org/2000/svg">
<path d="M29.45 0H1.55C1.13891 0 0.744666 0.163303 0.453984 0.453984C0.163303 0.744666 0 1.13891 0 1.55V29.45C0 29.8611 0.163303 30.2553 0.453984 30.546C0.744666 30.8367 1.13891 31 1.55 31H10.85C11.2611 31 11.6553 30.8367 11.946 30.546C12.2367 30.2553 12.4 29.8611 12.4 29.45V12.4H29.45C29.8611 12.4 30.2553 12.2367 30.546 11.946C30.8367 11.6553 31 11.2611 31 10.85V1.55C31 1.13891 30.8367 0.744666 30.546 0.453984C30.2553 0.163303 29.8611 0 29.45 0ZM27.9 9.3H24.8V7.75C24.8 7.33891 24.6367 6.94467 24.346 6.65398C24.0553 6.3633 23.6611 6.2 23.25 6.2C22.8389 6.2 22.4447 6.3633 22.154 6.65398C21.8633 6.94467 21.7 7.33891 21.7 7.75V9.3H18.6V7.75C18.6 7.33891 18.4367 6.94467 18.146 6.65398C17.8553 6.3633 17.4611 6.2 17.05 6.2C16.6389 6.2 16.2447 6.3633 15.954 6.65398C15.6633 6.94467 15.5 7.33891 15.5 7.75V9.3H12.4V7.75C12.4 7.33891 12.2367 6.94467 11.946 6.65398C11.6553 6.3633 11.2611 6.2 10.85 6.2C10.4389 6.2 10.0447 6.3633 9.75398 6.65398C9.4633 6.94467 9.3 7.33891 9.3 7.75V9.3H7.75C7.33891 9.3 6.94467 9.4633 6.65398 9.75398C6.3633 10.0447 6.2 10.4389 6.2 10.85C6.2 11.2611 6.3633 11.6553 6.65398 11.946C6.94467 12.2367 7.33891 12.4 7.75 12.4H9.3V15.5H7.75C7.33891 15.5 6.94467 15.6633 6.65398 15.954C6.3633 16.2447 6.2 16.6389 6.2 17.05C6.2 17.4611 6.3633 17.8553 6.65398 18.146C6.94467 18.4367 7.33891 18.6 7.75 18.6H9.3V21.7H7.75C7.33891 21.7 6.94467 21.8633 6.65398 22.154C6.3633 22.4447 6.2 22.8389 6.2 23.25C6.2 23.6611 6.3633 24.0553 6.65398 24.346C6.94467 24.6367 7.33891 24.8 7.75 24.8H9.3V27.9H3.1V3.1H27.9V9.3Z" fill="#272727"/>
</svg>
