<svg width="11" height="14" viewBox="0 0 11 14" fill="none" xmlns="http://www.w3.org/2000/svg">
<rect y="12.9836" width="0.998364" height="0.998364" rx="0.199673" fill="#BCB5AF"/>
<rect x="2" y="13" width="0.998364" height="0.998364" rx="0.199673" fill="#BCB5AF"/>
<rect x="4" y="13" width="0.998364" height="0.998364" rx="0.199673" fill="#BCB5AF"/>
<rect x="6" y="13" width="0.998364" height="0.998364" rx="0.199673" fill="#BCB5AF"/>
<rect x="8" y="13" width="0.998364" height="0.998364" rx="0.199673" fill="#BCB5AF"/>
<rect x="9.98364" y="3" width="0.998364" height="0.998364" rx="0.199673" fill="#BCB5AF"/>
<rect x="7.98691" y="3" width="0.998364" height="0.998364" rx="0.199673" fill="#BCB5AF"/>
<rect x="8" y="1" width="0.998364" height="0.998364" rx="0.199673" fill="#BCB5AF"/>
<rect x="9" y="2" width="0.998364" height="0.998364" rx="0.199673" fill="#BCB5AF"/>
<rect x="7" width="0.998364" height="0.998364" rx="0.199673" fill="#BCB5AF"/>
<rect x="5.99017" y="3" width="0.998364" height="0.998364" rx="0.199673" fill="#BCB5AF"/>
<rect x="3.99344" y="3" width="0.998364" height="0.998364" rx="0.199673" fill="#BCB5AF"/>
<rect x="1.99677" y="3" width="0.998364" height="0.998364" rx="0.199673" fill="#BCB5AF"/>
<rect y="3" width="0.998364" height="0.998364" rx="0.199673" fill="#BCB5AF"/>
<rect y="5" width="0.998364" height="0.998364" rx="0.199673" fill="#BCB5AF"/>
<rect y="7" width="0.998364" height="0.998364" rx="0.199673" fill="#BCB5AF"/>
<rect y="9" width="0.998364" height="0.998364" rx="0.199673" fill="#BCB5AF"/>
<rect y="11" width="0.998364" height="0.998364" rx="0.199673" fill="#BCB5AF"/>
<rect x="9.98364" y="12.9836" width="0.998364" height="0.998364" rx="0.199673" fill="#BCB5AF"/>
<rect x="8" y="5" width="0.998364" height="0.998364" rx="0.199673" fill="#BCB5AF"/>
<rect x="9" y="4" width="0.998364" height="0.998364" rx="0.199673" fill="#BCB5AF"/>
<rect x="7" y="6" width="1" height="1" rx="0.199673" fill="#BCB5AF"/>
<rect x="9.98364" y="8.99036" width="0.998364" height="0.998364" rx="0.199673" fill="#BCB5AF"/>
<rect x="9.98364" y="10.9868" width="0.998364" height="0.998364" rx="0.199673" fill="#BCB5AF"/>
</svg>
