<svg width="310" height="201" viewBox="0 0 310 201" fill="none" xmlns="http://www.w3.org/2000/svg">
<g clip-path="url(#clip0_4482_159)">
<path d="M0.569824 200.5H33.6079V199.035H18.3267C19.5571 195.865 41.2558 136.226 41.2558 136.226H104.009C104.009 136.226 125.465 195.26 126.82 199.035H106.352V200.493H161.096L88.9562 0.5L16.7278 199.035H0.569824V200.493V200.5ZM41.6242 134.761L72.5698 49.7675L103.515 134.769H41.6242V134.761Z" fill="#BCB5AF"/>
<path d="M161.213 200.5H209.226C264.625 200.5 309.43 168.184 309.43 102.702C309.43 38.0692 266.589 4.54041 208.608 4.54041H140.775V5.9925H161.213V200.5ZM192.849 199.164V6.10866H205.157C219.688 6.10866 231.753 6.9654 240.736 11.22C265.11 22.6335 273.483 52.1617 273.483 102.702C273.483 150.693 261.299 179.118 241.354 191.991C232.121 197.705 219.32 199.164 207.99 199.164H192.849Z" fill="#BCB5AF"/>
</g>
<defs>
<clipPath id="clip0_4482_159">
<rect width="308.861" height="200" fill="white" transform="translate(0.569824 0.5)"/>
</clipPath>
</defs>
</svg>
