<svg width="476" height="200" viewBox="0 0 476 200" fill="none" xmlns="http://www.w3.org/2000/svg">
<mask id="mask0_4482_75" style="mask-type:luminance" maskUnits="userSpaceOnUse" x="20" y="20" width="432" height="159">
<path d="M20 178.784H451.292V20.8201H20V178.784Z" fill="white"/>
</mask>
<g mask="url(#mask0_4482_75)">
<path fill-rule="evenodd" clip-rule="evenodd" d="M20.4082 22.5481L20.4202 37.0481H44.3962V177.06H67.0442V37.0481H90.3562V22.5161L20.4082 22.5481Z" fill="#BCB5AF"/>
</g>
<mask id="mask1_4482_75" style="mask-type:luminance" maskUnits="userSpaceOnUse" x="20" y="20" width="432" height="159">
<path d="M20 178.784H451.292V20.8201H20V178.784Z" fill="white"/>
</mask>
<g mask="url(#mask1_4482_75)">
<path fill-rule="evenodd" clip-rule="evenodd" d="M20 22.1402L20.012 37.4562H43.988V177.468H67.452V37.4562H90.764V22.1082L20 22.1402ZM20.82 22.9602L89.944 22.9242V36.6402H66.632V176.652H44.808V36.6402H20.828L20.82 22.9602Z" fill="#BCB5AF"/>
</g>
<mask id="mask2_4482_75" style="mask-type:luminance" maskUnits="userSpaceOnUse" x="20" y="20" width="432" height="159">
<path d="M20 178.784H451.292V20.8201H20V178.784Z" fill="white"/>
</mask>
<g mask="url(#mask2_4482_75)">
<path fill-rule="evenodd" clip-rule="evenodd" d="M97.4877 68.768V62.168H77.4277V176.728H98.4837C98.4837 176.728 98.7597 100.464 98.4837 92.208C98.1517 82.304 113.072 81.648 113.072 81.648H120.032V61.176C108.76 59.524 97.4877 68.768 97.4877 68.768Z" fill="#BCB5AF"/>
</g>
<mask id="mask3_4482_75" style="mask-type:luminance" maskUnits="userSpaceOnUse" x="20" y="20" width="432" height="159">
<path d="M20 178.784H451.292V20.8201H20V178.784Z" fill="white"/>
</mask>
<g mask="url(#mask3_4482_75)">
<path fill-rule="evenodd" clip-rule="evenodd" d="M77.8356 176.32H98.0756C98.0956 170.296 98.3356 100.064 98.0756 92.2241C97.7316 82.0321 112.9 81.2441 113.052 81.2361H119.624V61.5321C108.78 60.1681 97.8556 68.9921 97.7436 69.0841L97.0756 69.6321V62.5721H77.8356V176.32ZM98.8916 177.136H77.0156V61.7601H97.8956V67.9401C100.508 66.0081 110.34 59.3401 120.096 60.7721L120.444 60.8241V82.0521H113.072C113.052 82.0521 109.368 82.2321 105.784 83.6001C101.08 85.3921 98.7596 88.2881 98.8916 92.2001C99.1636 100.364 98.8916 175.968 98.8916 176.728V177.136ZM230.136 62.1641L218.2 135.46L205.268 61.8361H183.384L205.932 177.056H222.844L244.064 62.1641H230.136Z" fill="#BCB5AF"/>
</g>
<mask id="mask4_4482_75" style="mask-type:luminance" maskUnits="userSpaceOnUse" x="20" y="20" width="432" height="159">
<path d="M20 178.784H451.292V20.8201H20V178.784Z" fill="white"/>
</mask>
<g mask="url(#mask4_4482_75)">
<path fill-rule="evenodd" clip-rule="evenodd" d="M206.268 176.652H222.504L243.572 62.5721H230.484L218.216 137.912L204.924 62.2441H183.884L206.268 176.652ZM223.188 177.464H205.596L205.528 177.136L182.888 61.4281H205.612L205.672 61.7641L218.184 133.004L229.788 61.7601H244.556L223.188 177.464ZM274.14 69.1001C274.14 69.1001 283.092 69.4281 283.424 85.9401C283.756 102.444 283.424 111.356 283.424 111.356H264.856V85.6081C264.856 85.6081 264.524 69.1001 274.14 69.1001ZM284.088 129.848V155.268C284.088 155.268 283.756 169.132 274.804 168.804C265.852 168.476 264.856 155.268 264.856 155.268V120.604H306.636C309.952 58.2041 274.472 60.5161 274.472 60.5161C239.988 64.8081 242.308 109.708 242.308 109.708C242.308 109.708 237.996 179.368 275.136 178.048C312.272 176.728 306.304 129.848 306.304 129.848H284.088Z" fill="#BCB5AF"/>
</g>
<mask id="mask5_4482_75" style="mask-type:luminance" maskUnits="userSpaceOnUse" x="20" y="20" width="432" height="159">
<path d="M20 178.784H451.292V20.8201H20V178.784Z" fill="white"/>
</mask>
<g mask="url(#mask5_4482_75)">
<path fill-rule="evenodd" clip-rule="evenodd" d="M265.264 110.952H283.028C283.088 109.056 283.304 100.348 283.016 85.9442C282.696 70.1762 274.388 69.5202 274.132 69.5042C272.26 69.5082 270.648 70.1842 269.34 71.5122C265.12 75.7922 265.26 85.5002 265.264 85.6002V110.952ZM283.82 111.764H264.448V85.6042C264.44 85.2042 264.296 75.4722 268.756 70.9402C270.224 69.4482 272.036 68.6922 274.14 68.6922H274.156C274.536 68.7042 283.5 69.2282 283.836 85.9322C284.16 102.26 283.836 111.284 283.836 111.372L283.82 111.764ZM274.908 60.9122C274.652 60.9122 274.508 60.9202 274.496 60.9202C240.816 65.1162 242.696 109.24 242.716 109.688C242.692 110.168 240.236 153.284 257.124 170.54C261.98 175.504 268.036 177.888 275.124 177.64C284.424 177.312 291.796 174.04 297.024 167.908C308.032 155.016 306.248 133.296 305.936 130.256H284.496V155.268C284.488 155.608 284.256 163.428 280.208 167.228C278.716 168.62 276.892 169.284 274.788 169.212C270.956 169.072 267.948 166.6 266.092 162.068C265.228 159.901 264.675 157.622 264.448 155.3V120.196H306.248C307.48 95.9562 303.048 78.6962 293.088 68.8962C285.432 61.3722 276.864 60.9122 274.908 60.9122ZM274.108 178.472C267.228 178.472 261.324 176 256.536 171.112C239.392 153.592 241.872 110.12 241.896 109.684C241.876 109.276 239.956 64.4002 274.42 60.1122C274.548 60.1002 284.74 59.5482 293.66 68.3122C303.852 78.3362 308.356 95.9362 307.044 120.624L307.024 121.012H265.264V155.268C265.272 155.364 266.336 168.084 274.816 168.396C276.692 168.48 278.32 167.876 279.644 166.632C283.448 163.072 283.676 155.336 283.676 155.26V129.44H306.664L306.708 129.796C306.74 130.036 309.676 154.352 297.648 168.436C292.264 174.744 284.692 178.116 275.148 178.456C274.801 178.469 274.454 178.471 274.108 178.472ZM370.564 69.1002C370.564 69.1002 379.524 69.4282 379.852 85.9402C380.18 102.444 379.852 111.356 379.852 111.356H361.28V85.6082C361.28 85.6082 360.948 69.1002 370.564 69.1002ZM380.512 129.848V155.268C380.512 155.268 380.18 169.132 371.232 168.804C362.276 168.476 361.28 155.268 361.28 155.268V120.604H403.06C406.38 58.2042 370.9 60.5162 370.9 60.5162C336.412 64.8082 338.732 109.708 338.732 109.708C338.732 109.708 334.424 179.368 371.56 178.048C408.7 176.728 402.728 129.848 402.728 129.848H380.512Z" fill="#BCB5AF"/>
</g>
<mask id="mask6_4482_75" style="mask-type:luminance" maskUnits="userSpaceOnUse" x="20" y="20" width="432" height="159">
<path d="M20 178.784H451.292V20.8201H20V178.784Z" fill="white"/>
</mask>
<g mask="url(#mask6_4482_75)">
<path fill-rule="evenodd" clip-rule="evenodd" d="M361.692 110.952H379.452C379.512 109.056 379.732 100.348 379.44 85.944C379.124 70.156 371 69.528 370.56 69.504C368.684 69.508 367.072 70.184 365.768 71.512C361.548 75.792 361.688 85.5 361.688 85.6L361.692 110.952ZM380.244 111.764H360.872V85.604C360.864 85.204 360.72 75.472 365.18 70.94C366.652 69.448 368.46 68.692 370.568 68.692H370.58C370.964 68.704 379.924 69.228 380.26 85.932C380.588 102.26 380.26 111.284 380.26 111.372L380.244 111.764ZM371.324 60.912C371.072 60.912 370.936 60.92 370.924 60.92C337.244 65.116 339.124 109.24 339.144 109.688C339.116 110.168 336.66 153.288 353.548 170.54C358.408 175.504 364.464 177.9 371.548 177.64C380.848 177.312 388.22 174.04 393.448 167.912C404.452 155.024 402.676 133.3 402.364 130.256H380.924V155.268C380.916 155.608 380.684 163.432 376.632 167.228C375.913 167.912 375.062 168.441 374.13 168.783C373.198 169.124 372.207 169.27 371.216 169.212C367.38 169.072 364.376 166.6 362.52 162.068C361.655 159.901 361.1 157.622 360.872 155.3V120.196H402.672C403.904 95.968 399.484 78.716 389.528 68.912C381.864 61.364 373.252 60.912 371.324 60.912ZM370.536 178.472C363.656 178.472 357.748 176 352.964 171.112C335.82 153.592 338.3 110.12 338.324 109.684C338.3 109.276 336.384 64.4 370.844 60.112C370.976 60.1 381.168 59.548 390.084 68.312C400.28 78.336 404.784 95.936 403.472 120.624L403.452 121.012H361.692V155.268C361.7 155.364 362.764 168.084 371.244 168.396C373.124 168.476 374.744 167.876 376.072 166.636C379.872 163.076 380.1 155.336 380.104 155.26V129.44H403.092L403.136 129.796C403.168 130.036 406.104 154.348 394.076 168.436C388.688 174.744 381.116 178.116 371.576 178.456C371.229 178.468 370.883 178.471 370.536 178.472ZM312.584 177.06H332.808V21.228H312.584V177.06Z" fill="#BCB5AF"/>
</g>
<mask id="mask7_4482_75" style="mask-type:luminance" maskUnits="userSpaceOnUse" x="20" y="20" width="432" height="159">
<path d="M20 178.784H451.292V20.8201H20V178.784Z" fill="white"/>
</mask>
<g mask="url(#mask7_4482_75)">
<path fill-rule="evenodd" clip-rule="evenodd" d="M312.992 176.652H332.4V21.6361H312.992V176.652ZM312.176 177.468H333.216V20.8201H312.176V177.468ZM428.336 67.4481V60.8481H408.272V177.056H429.328C429.328 177.056 429.248 99.1441 429.328 90.8881C429.428 80.9801 443.92 80.3241 443.92 80.3241H450.88V59.8561C439.608 58.2041 428.336 67.4481 428.336 67.4481Z" fill="#BCB5AF"/>
</g>
<mask id="mask8_4482_75" style="mask-type:luminance" maskUnits="userSpaceOnUse" x="20" y="20" width="432" height="159">
<path d="M20 178.784H451.292V20.8201H20V178.784Z" fill="white"/>
</mask>
<g mask="url(#mask8_4482_75)">
<path fill-rule="evenodd" clip-rule="evenodd" d="M429.74 177.464H407.86V60.44H428.744V66.624C431.356 64.688 441.188 58.024 450.944 59.456L451.292 59.508V80.736H443.92C443.904 80.736 440.32 80.916 436.792 82.28C432.152 84.08 429.78 86.976 429.74 90.896C429.66 99.056 429.74 176.284 429.74 177.06V177.464ZM161.996 153.176C161.996 153.176 161.108 162.976 153.372 163.08C145.084 163.192 143.092 154.28 143.092 154.28V126.436C143.092 126.436 143.316 122.804 145.412 120.492C147.516 118.18 159.012 112.02 161.996 109.376V153.176ZM153.816 60.844C119.332 61.504 123.976 96.444 123.976 96.444H144.752V81.32C144.752 81.32 146.192 70.092 153.484 70.092C160.78 70.092 161.664 80.768 161.664 80.768V96.176C160.668 97.936 153.816 102.888 153.816 102.888C151.164 104.648 148.088 106.992 139.888 112.464C129.832 119.176 125.408 126.328 125.408 126.328C119 136.452 120.828 160.496 124.304 167.156C125.716 169.856 130.936 178.384 143.204 178.384C155.472 178.384 163.1 170.46 163.1 170.46V177.06H182.66V96.504C182.66 58.868 153.816 60.848 153.816 60.848V60.844Z" fill="#BCB5AF"/>
</g>
<mask id="mask9_4482_75" style="mask-type:luminance" maskUnits="userSpaceOnUse" x="20" y="20" width="432" height="159">
<path d="M20 178.784H451.292V20.8201H20V178.784Z" fill="white"/>
</mask>
<g mask="url(#mask9_4482_75)">
<path fill-rule="evenodd" clip-rule="evenodd" d="M143.504 154.232C143.58 154.54 144.112 156.548 145.476 158.512C147.428 161.316 150.104 162.712 153.368 162.672C156.4 162.632 158.7 161.04 160.208 157.936C161.304 155.668 161.564 153.376 161.584 153.16V110.24C159.952 111.492 157.152 113.216 154.208 115.024C150.56 117.264 146.792 119.584 145.72 120.764C143.744 122.94 143.504 126.424 143.504 126.46V154.232ZM153.224 163.488C144.828 163.488 142.716 154.456 142.696 154.368L142.684 154.28V126.436C142.696 126.256 142.94 122.608 145.112 120.22C146.264 118.952 149.912 116.708 153.776 114.332C157.004 112.344 160.344 110.292 161.724 109.072L162.404 108.472V153.216C162.392 153.316 161.392 163.384 153.38 163.488H153.224ZM153.484 69.684C161.068 69.684 162.06 80.62 162.072 80.732V96.276L162.02 96.372C160.992 98.188 154.34 103.012 154.06 103.212C153.06 103.876 152 104.624 150.66 105.568C148.38 107.168 145.26 109.368 140.116 112.796C130.26 119.376 125.8 126.468 125.756 126.54C119.476 136.464 121.208 160.34 124.668 166.964C126.396 170.276 131.664 177.972 143.204 177.972C155.164 177.972 162.728 170.252 162.804 170.172L163.508 169.44V176.652H182.256V96.5C182.256 83.764 178.948 74.232 172.428 68.172C164.308 60.628 153.948 61.244 153.844 61.252H153.824C143.928 61.444 136.348 64.508 131.292 70.364C123.152 79.792 124.108 93.656 124.34 96.04H144.34V81.316C144.408 80.792 145.916 69.684 153.484 69.684ZM143.204 178.784C131.212 178.784 125.74 170.784 123.94 167.344C120.412 160.584 118.652 136.236 125.06 126.104C125.108 126.04 129.644 118.804 139.66 112.12C144.796 108.696 147.912 106.5 150.184 104.9C151.532 103.952 152.592 103.204 153.588 102.544C155.424 101.22 160.324 97.504 161.252 96.06V80.76C161.248 80.692 160.316 70.492 153.484 70.492C146.628 70.492 145.172 81.252 145.16 81.364V96.852H123.616L123.568 96.496C123.548 96.336 121.548 80.396 130.672 69.828C135.884 63.788 143.664 60.628 153.8 60.436C154.216 60.412 164.74 59.908 172.984 67.572C179.68 73.792 183.072 83.524 183.072 96.496V177.464H162.692V171.388C160.508 173.308 153.4 178.784 143.204 178.784ZM115.808 43.98C113.996 49.9 109.852 49.9 109.248 49.9C104.984 49.9 103.132 44.516 103.132 38.86C103.132 35.168 104.016 26.668 109.812 26.668C111.584 26.668 114.48 27.468 115.488 32.14L121 30.404C120.64 28.848 118.224 21.192 110.096 21.284C102.932 21.284 96.9355 27.336 96.9355 39.128C96.9355 51.992 104.336 55.824 109.976 55.824C114.48 55.824 117.336 53.464 119.068 51.06C120.516 49.06 120.88 47.364 121.28 45.672L115.808 43.98Z" fill="#BCB5AF"/>
</g>
<mask id="mask10_4482_75" style="mask-type:luminance" maskUnits="userSpaceOnUse" x="20" y="20" width="432" height="159">
<path d="M20 178.784H451.292V20.8201H20V178.784Z" fill="white"/>
</mask>
<g mask="url(#mask10_4482_75)">
<path fill-rule="evenodd" clip-rule="evenodd" d="M110.236 21.6881H110.1C102.352 21.6881 97.3443 28.5361 97.3443 39.1281C97.3443 54.6281 107.864 55.4161 109.972 55.4161C113.592 55.4161 116.54 53.8681 118.732 50.8201C120.032 49.0281 120.42 47.5241 120.796 45.9481L116.076 44.4921C114.256 49.8801 110.408 50.3081 109.248 50.3081C104.432 50.3081 102.724 44.1441 102.724 38.8641C102.724 36.7561 103.064 26.2601 109.812 26.2601C111.564 26.2601 114.612 26.9681 115.784 31.6201L120.504 30.1321C120.004 28.3281 117.644 21.6881 110.236 21.6881ZM109.972 56.2281C107.996 56.2281 104.212 55.7561 101.052 52.5881C98.0523 49.5721 96.5283 45.0441 96.5283 39.1281C96.5283 28.0401 101.852 20.8721 110.096 20.8721H110.236C117.312 20.8721 120.58 26.7921 121.396 30.3121L121.484 30.6801L115.18 32.6641L115.088 32.2241C114.12 27.7441 111.368 27.0761 109.812 27.0761C103.844 27.0761 103.544 36.8921 103.544 38.8641C103.544 43.7681 105.036 49.4961 109.248 49.4961C110.588 49.4961 113.864 48.9441 115.416 43.8641L115.536 43.4721L121.768 45.3961L121.632 45.9601C121.244 47.6041 120.84 49.3041 119.4 51.2961C117.78 53.5481 114.828 56.2281 109.972 56.2281ZM129.62 43.3601C129.62 44.8721 129.74 51.2401 133.884 51.2401C138.068 51.2401 138.192 44.7401 138.192 42.6921C138.192 40.5521 137.748 35.0361 133.964 35.0361C130.384 35.0361 129.62 39.5361 129.62 43.3601ZM143.62 43.2241C143.62 51.9481 138.672 55.6001 133.964 55.6001C129.66 55.6001 124.188 52.4401 124.188 43.2681C124.188 35.3001 128.292 31.0721 133.404 31.0721C141.492 31.0721 143.62 37.7041 143.62 43.2241Z" fill="#BCB5AF"/>
</g>
<mask id="mask11_4482_75" style="mask-type:luminance" maskUnits="userSpaceOnUse" x="20" y="20" width="432" height="159">
<path d="M20 178.784H451.292V20.8201H20V178.784Z" fill="white"/>
</mask>
<g mask="url(#mask11_4482_75)">
<path fill-rule="evenodd" clip-rule="evenodd" d="M133.964 35.44C130.712 35.44 130.028 39.748 130.028 43.36C130.028 45.604 130.404 50.828 133.884 50.828C137.104 50.828 137.78 46.404 137.78 42.692C137.78 40.992 137.508 35.44 133.964 35.44ZM133.884 51.644C130.916 51.644 129.212 48.624 129.212 43.36C129.212 37.648 130.852 34.628 133.964 34.628C138.268 34.628 138.604 40.8 138.604 42.692C138.604 50.092 136.036 51.644 133.884 51.644ZM133.404 31.484C128.052 31.484 124.596 36.108 124.596 43.268C124.596 52.068 129.644 55.192 133.964 55.192C140.356 55.192 143.212 49.18 143.212 43.224C143.212 39.692 142.256 31.484 133.404 31.484ZM133.964 56.008C128.896 56.008 123.78 52.068 123.78 43.268C123.78 35.612 127.556 30.668 133.404 30.668C136.6 30.668 144.032 31.888 144.032 43.228C144.032 52.056 138.976 56.008 133.964 56.008ZM160.02 31.12C156.036 31.12 153.62 33.656 152.576 34.768V31.52H147.144V55.2H152.576V38.952C154.508 36.992 155.956 35.924 157.564 35.924C159.256 35.924 159.536 37.348 159.536 38.644V55.2H164.968V37.172C164.968 33.252 163.36 31.12 160.02 31.12Z" fill="#BCB5AF"/>
</g>
<mask id="mask12_4482_75" style="mask-type:luminance" maskUnits="userSpaceOnUse" x="20" y="20" width="432" height="159">
<path d="M20 178.784H451.292V20.8201H20V178.784Z" fill="white"/>
</mask>
<g mask="url(#mask12_4482_75)">
<path fill-rule="evenodd" clip-rule="evenodd" d="M159.948 54.7921H164.56V37.1721C164.56 33.3721 163.076 31.5241 160.02 31.5241C156.184 31.5241 153.864 33.9921 152.876 35.0441L152.164 35.8001V31.9201H147.552V54.7881H152.164V38.7841L152.284 38.6641C154.2 36.7241 155.752 35.5161 157.564 35.5161C159.144 35.5161 159.948 36.5681 159.948 38.6401V54.7921ZM165.38 55.6081H159.128V38.6401C159.128 37.0241 158.66 36.3321 157.568 36.3321C156.072 36.3321 154.696 37.3961 152.984 39.1201V55.6081H146.732V31.1121H152.984V33.7601C154.284 32.4961 156.58 30.7121 160.02 30.7121C162.464 30.7121 165.38 31.8321 165.38 37.1721V55.6081ZM182.048 38.4161C181.368 37.5281 180.08 36.1041 178.268 36.1041C174.244 36.1041 174.044 41.7121 174.044 43.4921C174.044 45.4521 174.564 50.6121 178.308 50.6121C180.24 50.6121 181.448 49.1001 182.048 48.3441V38.4161ZM187.44 21.4561V55.2001H182.008V52.4801C181.328 53.2841 179.356 55.6001 176.136 55.6001C171.268 55.6001 168.128 50.2121 168.128 43.4001C168.128 36.5481 171.348 31.1201 176.176 31.1201C177.18 31.1201 179.636 31.2961 182.008 34.2321V21.4601H187.44V21.4561Z" fill="#BCB5AF"/>
</g>
<mask id="mask13_4482_75" style="mask-type:luminance" maskUnits="userSpaceOnUse" x="20" y="20" width="432" height="159">
<path d="M20 178.784H451.292V20.8201H20V178.784Z" fill="white"/>
</mask>
<g mask="url(#mask13_4482_75)">
<path fill-rule="evenodd" clip-rule="evenodd" d="M178.268 36.512C174.948 36.512 174.452 40.884 174.452 43.492C174.452 44.18 174.56 50.208 178.308 50.208C179.96 50.208 181.032 48.96 181.64 48.2V38.56C180.552 37.18 179.448 36.512 178.268 36.512ZM178.308 51.02C174.856 51.02 173.632 46.964 173.632 43.492C173.632 38.464 175.28 35.692 178.268 35.692C179.732 35.692 181.112 36.528 182.376 38.172L182.456 38.28V48.48L182.372 48.592C181.744 49.38 180.436 51.02 178.308 51.02ZM176.176 31.52C171.748 31.52 168.536 36.52 168.536 43.4C168.536 50.228 171.736 55.188 176.136 55.188C179.16 55.188 181.004 53.028 181.696 52.216L182.416 51.376V54.788H187.032V21.868H182.42V35.388L181.692 34.488C180.1 32.524 178.248 31.528 176.172 31.528M176.132 56.008C171.256 56.008 167.716 50.708 167.716 43.404C167.716 36.048 171.276 30.712 176.176 30.712C178.56 30.712 180.364 31.908 181.6 33.16V21.052H187.852V55.608H181.6V53.54C180.572 54.576 178.732 56.008 176.132 56.008ZM196.172 40.82C196.412 36.46 198.668 35.168 200.48 35.168C202.008 35.168 204.744 36.148 204.944 40.82H196.172ZM209.212 37.66C208.124 34.012 205.104 31.12 200.44 31.12C194.52 31.12 190.46 35.88 190.46 43.092C190.46 51.104 195.208 55.6 200.64 55.6C206.392 55.6 208.648 51.016 209.372 49.544L204.944 47.496C204.464 48.476 203.416 50.792 200.68 50.792C199.112 50.792 196.376 49.856 196.172 44.428H209.772C209.892 42.38 209.972 40.288 209.212 37.66Z" fill="#BCB5AF"/>
</g>
<mask id="mask14_4482_75" style="mask-type:luminance" maskUnits="userSpaceOnUse" x="20" y="20" width="432" height="159">
<path d="M20 178.784H451.292V20.8201H20V178.784Z" fill="white"/>
</mask>
<g mask="url(#mask14_4482_75)">
<path fill-rule="evenodd" clip-rule="evenodd" d="M196.612 40.4122H204.512C204.136 35.8162 201.1 35.5762 200.48 35.5762C199.656 35.5762 197.02 35.9362 196.612 40.4162V40.4122ZM205.372 41.2282H195.74L195.764 40.8002C196.012 36.3482 198.364 34.7602 200.48 34.7602C201.248 34.7602 205.108 35.0522 205.356 40.8042L205.372 41.2282ZM200.44 31.5242C194.72 31.5242 190.872 36.1722 190.872 43.0922C190.872 51.4042 195.936 55.1922 200.644 55.1922C205.724 55.1922 207.956 51.4362 208.82 49.7402L205.14 48.0362C204.572 49.1562 203.364 51.1962 200.684 51.1962C199.588 51.1962 196.004 50.7122 195.764 44.4402L195.752 44.0202H209.392C209.496 42.0042 209.5 40.1042 208.82 37.7762C207.66 33.8642 204.524 31.5242 200.44 31.5242ZM200.64 56.0042C195.544 56.0042 190.052 51.9642 190.052 43.0922C190.052 35.6842 194.228 30.7122 200.44 30.7122C204.84 30.7122 208.352 33.3282 209.608 37.5442C210.368 40.1482 210.316 42.2122 210.184 44.4522L210.164 44.8362H196.604C196.932 49.8362 199.548 50.3842 200.684 50.3842C203.08 50.3842 204.028 48.4522 204.536 47.4122L204.76 46.9602L209.928 49.3522L209.744 49.7242C208.972 51.2842 206.64 56.0042 200.64 56.0042ZM207.68 21.6802H201.28L195.932 28.5362H199.996L207.68 21.6802Z" fill="#BCB5AF"/>
</g>
<mask id="mask15_4482_75" style="mask-type:luminance" maskUnits="userSpaceOnUse" x="20" y="20" width="432" height="159">
<path d="M20 178.784H451.292V20.8201H20V178.784Z" fill="white"/>
</mask>
<g mask="url(#mask15_4482_75)">
<path fill-rule="evenodd" clip-rule="evenodd" d="M196.768 28.128H199.84L206.612 22.088H201.48L196.768 28.128ZM200.152 28.944H195.096L201.08 21.272H208.748L200.152 28.944ZM240.536 21.948V44.248H240.456L228.22 21.948H221.984V55.2H227.864V32.008H227.94L240.576 55.2H246.412V21.948H240.536Z" fill="#BCB5AF"/>
</g>
<mask id="mask16_4482_75" style="mask-type:luminance" maskUnits="userSpaceOnUse" x="20" y="20" width="432" height="159">
<path d="M20 178.784H451.292V20.8201H20V178.784Z" fill="white"/>
</mask>
<g mask="url(#mask16_4482_75)">
<path fill-rule="evenodd" clip-rule="evenodd" d="M240.82 54.792H246V22.352H240.944V44.656H240.292L240.092 44.444L227.984 22.36H222.4V54.796H227.456V31.6H228.108L228.304 31.812L240.82 54.792ZM246.82 55.608H240.332L228.268 33.468V55.608H221.576V21.54H228.464L240.124 42.8V21.54H246.82V55.608ZM262.748 43.02C260.728 43.444 255.396 44.58 255.396 48.288C255.396 50.188 256.728 51.112 257.984 51.112C259.928 51.112 261.984 49.3 262.748 48.628V43.02ZM267.628 49.976C267.628 51.324 268.004 53.516 268.348 54.568H263.4C263.202 53.8043 263.048 53.0296 262.94 52.248C261.988 53.18 260.16 54.948 257 54.948C253.608 54.948 250.52 52.716 250.52 48.752C250.52 42.896 256.352 40.368 262.752 39.82V39.14C262.752 36.952 261.34 35.604 259.324 35.604C257.072 35.604 255.4 36.868 254.14 38.724L251.092 35.9C252.042 34.5938 253.294 33.5361 254.74 32.8167C256.187 32.0974 257.785 31.7376 259.4 31.768C262.904 31.768 267.628 33.032 267.628 39.48V49.976Z" fill="#BCB5AF"/>
</g>
<mask id="mask17_4482_75" style="mask-type:luminance" maskUnits="userSpaceOnUse" x="20" y="20" width="432" height="159">
<path d="M20 178.784H451.292V20.8201H20V178.784Z" fill="white"/>
</mask>
<g mask="url(#mask17_4482_75)">
<path fill-rule="evenodd" clip-rule="evenodd" d="M262.34 43.524C260.16 43.996 255.804 45.148 255.804 48.288C255.804 49.952 256.936 50.708 257.984 50.708C259.676 50.708 261.564 49.124 262.34 48.444V43.52V43.524ZM257.984 51.524C256.492 51.524 254.984 50.412 254.984 48.288C254.984 44.224 260.564 43.06 262.664 42.624L263.156 42.52V48.808L263.02 48.928C262.22 49.64 260.096 51.52 257.984 51.52V51.524ZM259.32 35.196C261.616 35.196 263.16 36.784 263.16 39.144V40.192L262.784 40.224C259.216 40.528 250.928 41.972 250.928 48.752C250.928 52.728 254.072 54.54 256.996 54.54C260.004 54.54 261.724 52.86 262.652 51.96L263.232 51.396L263.344 52.196C263.412 52.684 263.508 53.296 263.716 54.16H267.808C267.462 52.7905 267.263 51.3878 267.216 49.976V39.48C267.216 33.44 262.964 32.176 259.396 32.176C256.264 32.176 253.592 33.444 251.644 35.856L254.072 38.108C255.512 36.176 257.272 35.196 259.32 35.196ZM256.996 55.356C253.572 55.356 250.108 53.088 250.108 48.756C250.108 43.584 254.56 40.204 262.34 39.448V39.144C262.34 37.24 261.152 36.012 259.32 36.012C257.428 36.012 255.8 37 254.48 38.952L254.208 39.344L250.54 35.944L250.76 35.652C251.751 34.2963 253.053 33.1987 254.557 32.4518C256.06 31.7048 257.722 31.3303 259.4 31.36C262.624 31.36 268.04 32.416 268.04 39.48V49.976C268.04 51.296 268.412 53.424 268.744 54.444L268.916 54.976H263.08L263.004 54.668C262.87 54.1445 262.755 53.6161 262.66 53.084C261.584 54.048 259.764 55.356 256.996 55.356ZM281.26 41.04C279.044 40.508 276.956 40.02 276.956 37.928C276.956 36.548 278.2 35.168 280.172 35.168C281.58 35.168 282.668 35.748 284.48 36.992L285 37.352L288.14 34.456C286.572 33.164 284.036 31.116 280.132 31.116C275.344 31.116 271.884 34.456 271.884 38.46C271.884 44.292 277.276 45.54 279.608 45.984C281.78 46.384 283.592 47.008 283.592 48.832C283.592 50.568 281.78 51.192 280.212 51.192C277.556 51.192 275.868 49.768 274.66 48.744L271.36 51.28C272.728 52.884 275.144 55.6 280.132 55.6C286.772 55.6 289.024 51.28 289.024 47.988C289.024 42.824 284.116 41.704 281.26 41.04Z" fill="#BCB5AF"/>
</g>
<mask id="mask18_4482_75" style="mask-type:luminance" maskUnits="userSpaceOnUse" x="20" y="20" width="432" height="159">
<path d="M20 178.784H451.292V20.8201H20V178.784Z" fill="white"/>
</mask>
<g mask="url(#mask18_4482_75)">
<path fill-rule="evenodd" clip-rule="evenodd" d="M271.952 51.3442C273.256 52.8442 275.58 55.1922 280.132 55.1922C283.284 55.1922 288.616 53.6722 288.616 47.9882C288.616 43.1802 283.988 42.1002 281.224 41.4562L281.16 41.4402L281.256 41.0402L281.116 41.4282C278.864 40.8882 276.54 40.3282 276.54 37.9282C276.54 36.3682 277.9 34.7602 280.168 34.7602C281.688 34.7602 282.84 35.3722 284.708 36.6562L284.96 36.8282L287.516 34.4762C286.008 33.2562 283.636 31.5242 280.128 31.5242C275.732 31.5242 272.288 34.5722 272.288 38.4602C272.288 44.1722 277.852 45.2362 279.68 45.5842C281.92 45.9962 284 46.6762 284 48.8322C284 50.8762 281.96 51.6002 280.208 51.6002C277.584 51.6002 275.836 50.2722 274.648 49.2682L271.952 51.3442ZM280.132 56.0082C274.856 56.0082 272.284 52.9922 271.052 51.5442L270.772 51.2202L274.672 48.2202L274.924 48.4322C276.096 49.4242 277.696 50.7842 280.212 50.7842C281.584 50.7842 283.184 50.2722 283.184 48.8322C283.184 47.5522 282.16 46.8722 279.536 46.3842C274.184 45.3642 271.476 42.7002 271.476 38.4642C271.476 34.1162 275.276 30.7122 280.132 30.7122C284.228 30.7122 286.84 32.8602 288.4 34.1402L288.76 34.4402L285.04 37.8682L284.248 37.3322C282.488 36.1162 281.48 35.5762 280.172 35.5762C278.412 35.5762 277.364 36.7722 277.364 37.9282C277.364 39.5682 278.856 40.0482 281.312 40.6362L281.26 41.0442L281.412 40.6602C284.212 41.3162 289.436 42.5362 289.436 47.9882C289.436 51.9802 286.556 56.0082 280.132 56.0082ZM304.16 35.8362V31.5162H300.376V23.8682H294.944V31.5202H291.684V35.8362H294.944V48.4362C294.944 50.7922 295.748 53.1082 297.64 54.4882C299.168 55.6442 301.1 55.6882 304.16 55.5562V50.6602C302.108 50.6162 300.376 50.4802 300.376 48.4322V35.8322L304.16 35.8362Z" fill="#BCB5AF"/>
</g>
<mask id="mask19_4482_75" style="mask-type:luminance" maskUnits="userSpaceOnUse" x="20" y="20" width="432" height="159">
<path d="M20 178.784H451.292V20.8201H20V178.784Z" fill="white"/>
</mask>
<g mask="url(#mask19_4482_75)">
<path fill-rule="evenodd" clip-rule="evenodd" d="M292.096 35.4281H295.352V48.4321C295.352 49.8801 295.68 52.5521 297.88 54.1601C299.28 55.2161 301.136 55.2681 303.748 55.1601V51.0601C302.04 51.0121 299.968 50.7921 299.968 48.4361V35.4281H303.748V31.9241H299.968V24.2681H295.352V31.9241H292.096V35.4281ZM302.172 56.0161C300.192 56.0161 298.672 55.7801 297.392 54.8121C295.552 53.4681 294.536 51.2001 294.536 48.4321V36.2441H291.276V31.1121H294.536V23.4561H300.784V31.1121H304.568V36.2401H300.784V48.4281C300.784 49.9321 301.784 50.1961 304.168 50.2481L304.568 50.2561V55.9401L304.176 55.9561C303.456 55.9881 302.792 56.0161 302.172 56.0161Z" fill="#BCB5AF"/>
</g>
</svg>
