<svg width="391" height="201" viewBox="0 0 391 201" fill="none" xmlns="http://www.w3.org/2000/svg">
<g clip-path="url(#clip0_4482_65)">
<path d="M56.0141 38.8131C50.0464 33.2024 42.1261 30.1396 33.9361 30.2756C13.9924 30.2756 0.195801 48.5459 0.195801 70.9313C0.195801 93.3166 13.9924 111.553 33.9361 111.553C45.1202 111.553 51.1136 107.711 55.7068 102.196H56.0141V109.709H74.7967V0.565002H56.0141V38.8131ZM38.2219 94.3924C24.1179 94.3924 19.9687 82.1154 19.815 70.9313C19.9687 59.73 24.1009 47.4702 38.2219 47.4702C52.343 47.4702 56.4581 59.73 56.6118 70.9313C56.4581 82.1154 52.3259 94.3924 38.2219 94.3924Z" fill="#BCB5AF"/>
<path d="M141.713 83.3448C139.869 85.9573 134.047 94.3924 119.328 94.3924C114.152 94.4942 109.143 92.5567 105.383 88.9979C101.623 85.4392 99.4133 80.5446 99.2306 75.3708H156.569C156.569 47.6238 145.231 30.2926 119.311 30.2926C94.1763 30.2756 79.6113 47.7775 79.6113 70.9313C79.6113 94.085 94.1763 111.553 119.328 111.553C140.484 111.553 151.668 101.427 157.508 92.5312L141.713 83.3448ZM119.328 45.6431C131.895 45.6431 136.966 56.8273 136.966 61.0107H99.2306C100.289 56.5217 102.87 52.5378 106.534 49.7363C110.197 46.9347 114.718 45.4884 119.328 45.6431Z" fill="#BCB5AF"/>
<path d="M153.364 135.565V121.154H91.8771V137.411H128.674L87.5913 184.332V198.743H153.364V182.488H112.726L153.364 135.565Z" fill="#BCB5AF"/>
<path d="M195.369 183.411C190.197 183.513 185.193 181.577 181.436 178.022C177.68 174.466 175.471 169.576 175.289 164.407H232.627C232.627 136.66 221.289 119.329 195.369 119.329C170.217 119.329 155.652 136.814 155.652 159.95C155.652 183.087 170.217 200.572 195.369 200.572C216.525 200.572 227.709 190.446 233.549 181.55L217.754 172.347C215.91 174.976 210.088 183.411 195.369 183.411ZM195.369 134.645C207.936 134.645 213.007 145.846 213.007 150.013H175.289C176.347 145.527 178.925 141.545 182.585 138.744C186.245 135.943 190.762 134.494 195.369 134.645Z" fill="#BCB5AF"/>
<path d="M278.826 183.411C273.656 183.509 268.654 181.572 264.899 178.017C261.143 174.462 258.933 169.575 258.746 164.407H316.084C316.084 136.66 304.729 119.329 278.826 119.329C253.675 119.329 239.11 136.814 239.11 159.95C239.11 183.087 253.743 200.572 278.826 200.572C299.982 200.572 311.167 190.446 317.006 181.55L301.212 172.347C299.436 174.976 293.596 183.411 278.826 183.411ZM278.826 134.645C291.394 134.645 296.448 145.846 296.448 150.013H258.797C259.854 145.535 262.424 141.561 266.074 138.76C269.724 135.96 274.228 134.506 278.826 134.645Z" fill="#BCB5AF"/>
<path d="M363.519 119.311C359.507 119.225 355.527 120.035 351.868 121.68C348.209 123.325 344.962 125.765 342.363 128.822H342.004V121.155H323.222V198.727H342.004V157.747C342.004 143.489 349.517 137.359 358.567 137.359C368.231 137.359 371.442 144.189 371.442 151.309V198.693H390.224V145.692C390.19 128.668 381.909 119.311 363.519 119.311Z" fill="#BCB5AF"/>
</g>
<defs>
<clipPath id="clip0_4482_65">
<rect width="390.028" height="200" fill="white" transform="translate(0.195801 0.565002)"/>
</clipPath>
</defs>
</svg>
