<svg width="519" height="200" viewBox="0 0 519 200" fill="none" xmlns="http://www.w3.org/2000/svg">
<path d="M278.694 57.7114H310.452L272.608 197.548H243.087L223.431 127.385L202.585 197.548H175.163L135.849 57.7114H167.678L189.923 156.066L210.699 82.125L203.844 57.6414H235.672L257.848 155.576L278.694 57.7114ZM423.497 177.401L405.169 160.193C397.054 168.237 386.002 172.714 374.529 172.644C353.543 172.644 339.693 156.975 339.693 133.75C339.693 133.331 339.693 132.981 339.693 132.561H423.357C428.114 85.3429 403.91 54.9132 366.415 54.9132C331.858 54.9132 306.395 84.2236 306.395 127.525C306.395 172.574 334.726 199.996 373.97 199.996C393.067 200.206 411.185 191.882 423.497 177.401ZM339.553 111.435C341.302 92.4781 352.284 79.6767 367.674 79.6767C382.854 79.6767 393.067 91.7086 394.046 111.435H339.553ZM435.669 0V182.018L450.988 197.478H468.407V0H435.669ZM518.983 0H486.245V182.018L501.564 197.478H518.983V0ZM93.7374 0V69.2536C85.2731 60.6494 74.0106 54.9132 60.8594 54.9132C28.4711 54.9132 0.000160969 83.734 0.000160969 129.553C-0.0697922 169.077 22.665 199.996 58.9707 199.996C72.8214 199.996 85.2731 193.77 95.9759 182.718L107.378 197.408H126.475V0H93.7374ZM66.5956 173.414C47.5683 173.414 33.5077 155.716 33.5077 128.014C33.5077 98.9138 48.4078 82.195 66.036 82.195C75.6895 82.195 87.0219 88.141 93.7374 99.1237V157.395C87.2318 167.328 76.8087 173.414 66.5956 173.414Z" fill="#BCB5AF"/>
</svg>
