<svg width="373" height="201" viewBox="0 0 373 201" fill="none" xmlns="http://www.w3.org/2000/svg">
<path d="M202.009 100.233C202.009 95.4072 201.983 90.6554 201.263 86.4622H114.117V128.381H139.984C139.984 132.571 128.027 141.185 110.088 141.185C90.3529 141.185 68.0095 125.669 67.5629 100.706C67.0967 74.8432 89.4714 57.9287 110.088 58.6652C126.831 59.2633 133.226 64.0645 142.563 73.2549C142.563 73.2549 196.893 73.2961 198.317 73.2961C196.697 67.0697 192.685 57.6618 185.821 47.9227C185.248 47.1121 184.663 46.2949 184.045 45.4842C170.319 27.2137 146.469 8.66481 109.413 8.62527C65.8725 8.56431 32.2676 37.6728 21.1857 73.3126C21.0539 73.7426 20.927 74.1726 20.7968 74.6059C20.7968 74.6257 20.7886 74.6554 20.7804 74.6719C18.505 82.6463 17.2759 91.0624 17.2759 99.7536C17.3583 108.076 18.4391 116.042 20.4031 123.558C27.3956 149.561 45.5952 171.021 69.5566 182.532C69.7493 182.622 69.9405 182.716 70.1382 182.802C70.2618 182.868 70.3886 182.916 70.5023 182.973C82.5942 188.473 96.1772 191.536 110.599 191.65C141.179 191.403 168.226 176.439 184.89 153.539C185.231 153.066 202.009 128.796 202.009 100.233Z" fill="#BCB5AF"/>
<path d="M339.692 153.14C339.692 153.14 356.676 131.451 356.74 102.571C356.875 45.8549 317.146 9.25136 261.722 9.16898C229.613 9.11956 200.01 26.1972 184.85 46.687C171.366 64.9163 169.144 80.1041 169.144 91.1514C168.504 104.896 169.855 111.396 169.855 111.396C171.813 125.707 177.369 139.784 185.898 152.062C202.04 175.305 228.842 192.149 262.04 192.149C284.072 192.152 299.657 181.804 302.473 180.307L308.312 187.069H364.746L339.692 153.14ZM305.338 113.342L300.52 107.422H243.269L266.545 140.46C242.324 145.207 219.432 124.626 219.767 101.052C220.106 76.9653 239.545 59.0755 262.79 59.232C288.308 59.3934 313.764 87.0587 305.338 113.342Z" fill="#BCB5AF"/>
<g opacity="0.5">
<path d="M198.317 73.3208C196.697 67.0944 192.685 57.675 185.821 47.9408C185.535 47.5273 185.223 47.1137 184.928 46.6969C184.904 46.7298 184.876 46.7628 184.851 46.7957C177.61 56.5793 173.622 65.4715 171.477 73.3142C184.707 73.3175 197.631 73.3208 198.317 73.3208Z" fill="#BCB5AF"/>
<path d="M202.009 100.233C202.009 95.4072 201.983 90.6554 201.263 86.4622H169.301C169.195 86.4622 169.146 89.7047 169.146 91.2271C168.506 104.973 169.857 111.429 169.857 111.429C171.807 125.73 177.357 139.783 185.872 152.049C189.514 146.332 202.009 124.883 202.009 100.233Z" fill="#BCB5AF"/>
</g>
</svg>
