<svg width="157" height="36" viewBox="0 0 157 36" fill="none" xmlns="http://www.w3.org/2000/svg">
<g clip-path="url(#clip0_4607_31)">
<path fill-rule="evenodd" clip-rule="evenodd" d="M36.499 21.4319C33.6569 21.7556 32.7259 22.2403 32.7259 24.274C32.7259 25.9608 33.7488 26.7549 35.0274 26.7549C36.3969 26.7549 37.2854 26.2512 37.9406 25.544V21.2699L36.499 21.4319ZM31.3808 11.7941C32.8975 11.2523 34.3518 10.9795 36.0074 10.9795C38.7583 10.9795 40.6598 11.6923 41.5834 13.2028C42.2925 14.1161 42.57 15.3296 42.5532 17.7732V24.6418C42.5532 25.75 43.4206 26.3208 44.294 26.4998L42.5048 29.7932C41.9291 29.7435 41.3072 29.6126 40.7275 29.3811C39.7899 29.0065 38.9663 28.3693 38.6407 27.3936C38.3658 27.8833 38.0113 28.2433 37.6762 28.5779C36.7585 29.495 35.3706 29.9114 34.0796 29.9114C30.5134 29.9114 28.0853 28.1887 28.0853 24.4624C28.0853 20.6377 30.4774 18.8089 35.9724 18.5385C36.1384 18.5385 37.7587 18.3942 37.9406 18.4113V17.3294C37.9406 15.1781 37.5489 14.6952 35.4566 14.6952C33.754 14.6952 32.2985 15.351 30.1087 16.3249L28.7898 12.984C29.6988 12.5154 30.2983 12.1796 31.3808 11.7941Z" fill="#BCB5AF"/>
<path fill-rule="evenodd" clip-rule="evenodd" d="M45.733 29.4431H50.3624V2.30908H45.733V29.4431Z" fill="#BCB5AF"/>
<path fill-rule="evenodd" clip-rule="evenodd" d="M53.226 29.4431H57.8548V2.30908H53.226V29.4431Z" fill="#BCB5AF"/>
<path fill-rule="evenodd" clip-rule="evenodd" d="M0 6.05518L5.9052 29.4422H11.2075L14.5626 12.8312L17.892 29.4422H23.0425L29.0166 6.05518H24.2184L20.7164 23.3822L17.2393 6.05518H12.1627L8.6925 23.5142L5.2461 6.05518H0Z" fill="#BCB5AF"/>
<path fill-rule="evenodd" clip-rule="evenodd" d="M86.377 21.4319C83.5343 21.7556 82.602 22.2403 82.602 24.274C82.602 25.9608 83.6258 26.7549 84.9041 26.7549C86.2737 26.7549 87.1619 26.2512 87.8183 25.544V21.2699L86.377 21.4319ZM81.2576 11.7941C82.7749 11.2523 84.2285 10.9795 85.8842 10.9795C88.6357 10.9795 90.5369 11.6923 91.4602 13.2028C92.1681 14.1161 92.4464 15.3296 92.43 17.7732V24.6418C92.43 25.75 93.2984 26.3208 94.1714 26.4998L92.3828 29.7932C91.7826 29.7411 91.134 29.6017 90.5366 29.3531C89.6279 28.9748 88.8359 28.3464 88.5187 27.3936C88.2434 27.8833 87.8881 28.2433 87.5539 28.5779C86.6352 29.495 85.2474 29.9114 83.9563 29.9114C80.3911 29.9114 77.9617 28.1887 77.9617 24.4624C77.9617 20.6377 80.3545 18.8089 85.8491 18.5385C86.0152 18.5385 87.6355 18.3942 87.8183 18.4113V17.3294C87.8183 15.1781 87.4269 14.6952 85.3346 14.6952C83.6308 14.6952 82.1753 15.351 79.9852 16.3249L78.6671 12.984C79.5768 12.5154 80.176 12.1796 81.2576 11.7941Z" fill="#BCB5AF"/>
<path fill-rule="evenodd" clip-rule="evenodd" d="M124.54 18.7082V18.3919C124.54 15.9104 123.875 14.1979 121.534 14.1979C119.668 14.1979 118.453 15.1945 118.363 18.6744L118.365 18.7082H124.54ZM129.17 27.9742C127.494 29.0871 125.223 29.93 122.573 29.93C116.988 29.93 113.58 26.4541 113.58 20.4893C113.58 17.3591 114.324 15.1327 115.809 13.4693C117.313 11.7825 119.33 10.9673 121.845 10.9673C124.226 10.9673 126.167 11.6981 127.379 13.0245C128.858 14.6222 129.527 16.9662 129.527 20.3024V21.8318H118.519C118.519 25.0796 120.558 26.2129 122.92 26.2129C124.755 26.2129 126.477 25.6941 128.103 24.817L129.17 27.9742Z" fill="#BCB5AF"/>
<path fill-rule="evenodd" clip-rule="evenodd" d="M140.39 10.9849C141.247 10.9849 141.778 11.091 142.381 11.3312L141.419 15.4396C140.894 15.2512 140.295 15.128 139.466 15.128C138.169 15.128 137.05 15.5789 136.035 16.4088V29.4428H131.334V16.1648C131.334 15.0063 131.2 12.1728 131.016 11.6859L134.67 11.1484C134.872 11.5006 135.746 13.6535 135.78 14.1401C136.49 13.0213 137.453 11.955 138.47 11.4302C139.022 11.1369 139.903 10.9849 140.39 10.9849Z" fill="#BCB5AF"/>
<path fill-rule="evenodd" clip-rule="evenodd" d="M68.497 26.601C69.8076 26.601 70.7303 26.4312 71.3063 25.3C71.8053 24.32 72.0427 22.5845 72.0427 20.0279C72.0427 18.0876 71.8037 16.7438 71.3283 15.914C70.8364 15.0338 70.0059 14.6515 68.839 14.6515C67.4747 14.6515 66.3957 15.1393 65.3628 15.9552V25.5021C66.0797 26.0244 67.1796 26.601 68.497 26.601ZM64.2223 11.165C64.5445 11.6361 65.1062 13.2502 65.1229 13.5186C66.2036 11.7397 68.3294 10.9834 69.9957 10.9834C71.4382 10.9834 72.7646 11.3869 73.7974 12.1016C75.7873 13.4733 77.0163 16.033 77.0163 20.1153C77.0163 23.8789 76.1892 26.4308 74.3048 28.1508C73.0653 29.2727 71.4118 29.8989 69.4889 29.8989C67.6644 29.8989 66.256 29.2916 65.3119 28.5933C65.3175 28.9108 65.3455 30.0128 65.3455 30.2648V35.7486H60.8023V16.1636C60.8023 15.0051 60.7424 12.1716 60.5575 11.6847L64.2223 11.165Z" fill="#BCB5AF"/>
<path fill-rule="evenodd" clip-rule="evenodd" d="M103.46 26.601C104.772 26.601 105.694 26.4312 106.27 25.3C106.77 24.32 107.005 22.5845 107.005 20.0279C107.005 18.0876 106.768 16.7438 106.292 15.914C105.8 15.0338 104.969 14.6515 103.802 14.6515C102.438 14.6515 101.359 15.1393 100.326 15.9552V25.5021C101.043 26.0244 102.143 26.601 103.46 26.601ZM99.1862 11.165C99.5074 11.6361 100.071 13.2502 100.086 13.5186C101.168 11.7397 103.293 10.9834 104.96 10.9834C106.404 10.9834 107.727 11.3869 108.761 12.1016C110.752 13.4733 111.98 16.033 111.98 20.1153C111.98 23.8789 111.152 26.4308 109.269 28.1508C108.029 29.2727 106.376 29.8989 104.453 29.8989C102.628 29.8989 101.221 29.2916 100.275 28.5933C100.28 28.9108 100.31 30.0128 100.31 30.2648V35.7486H95.7662V16.1636C95.7662 15.0051 95.7063 12.1716 95.5207 11.6847L99.1862 11.165Z" fill="#BCB5AF"/>
<path fill-rule="evenodd" clip-rule="evenodd" d="M147.72 0V4.6272L143.265 3.1791L142.245 6.3176L146.68 7.7592L143.953 11.5132L146.623 13.4525L149.324 9.7346L152.025 13.4525L154.696 11.5132L151.968 7.7592L156.403 6.3176L155.383 3.1791L150.928 4.6272V0L147.72 0Z" fill="#BCB5AF"/>
</g>
<defs>
<clipPath id="clip0_4607_31">
<rect width="157" height="36" fill="white"/>
</clipPath>
</defs>
</svg>
